<?xml version="1.0" standalone="no"?>
<!DOCTYPE svg PUBLIC "-//W3C//DTD SVG 20010904//EN"
 "http://www.w3.org/TR/2001/REC-SVG-20010904/DTD/svg10.dtd">
<svg version="1.0" xmlns="http://www.w3.org/2000/svg" class="svg">
 width="612.000000pt" height="275.000000pt" viewBox="0 0 612.000000 275.000000"
 preserveAspectRatio="xMidYMid meet">

<g transform="translate(0.000000,275.000000) scale(0.100000,-0.100000)"
fill="#000000" stroke="none">
<path d="M2520 2620 c0 -5 5 -10 11 -10 5 0 7 5 4 10 -3 6 -8 10 -11 10 -2 0
-4 -4 -4 -10z"/>
<path d="M2342 2402 c-12 -32 -22 -76 -22 -97 l1 -40 29 60 c15 33 29 54 29
48 1 -10 42 -13 171 -13 144 0 170 2 170 15 0 13 -26 15 -170 15 -93 0 -171 3
-171 8 -1 4 -3 17 -4 30 -4 38 -10 33 -33 -26z"/>
<path d="M2731 2420 c0 -26 10 -66 24 -95 l23 -50 1 41 c1 24 -9 64 -23 95
l-25 54 0 -45z"/>
<path d="M2435 2340 c3 -5 8 -10 11 -10 2 0 4 5 4 10 0 6 -5 10 -11 10 -5 0
-7 -4 -4 -10z"/>
<path d="M2341 2272 c-12 -33 -21 -70 -19 -83 2 -19 9 -9 31 44 15 37 27 74
27 82 0 31 -16 13 -39 -43z"/>
<path d="M2731 2305 c0 -16 11 -55 24 -85 22 -51 24 -52 25 -24 0 17 -11 56
-24 85 -22 49 -25 51 -25 24z"/>
<path d="M2482 2303 c37 -2 100 -2 140 0 40 1 10 3 -67 3 -77 0 -110 -1 -73
-3z"/>
<path d="M1873 2205 l-32 -75 115 0 c71 0 114 4 114 10 0 6 -13 40 -29 75
l-30 65 -53 0 -54 0 -31 -75z"/>
<path d="M2402 2255 c0 -16 2 -22 5 -12 2 9 2 23 0 30 -3 6 -5 -1 -5 -18z"/>
<path d="M2420 2255 c0 -16 6 -25 15 -25 9 0 15 9 15 25 0 16 -6 25 -15 25 -9
0 -15 -9 -15 -25z"/>
<path d="M2460 2255 c0 -16 6 -25 15 -25 9 0 15 9 15 25 0 16 -6 25 -15 25 -9
0 -15 -9 -15 -25z"/>
<path d="M2500 2255 c0 -16 6 -25 15 -25 9 0 15 9 15 25 0 16 -6 25 -15 25 -9
0 -15 -9 -15 -25z"/>
<path d="M2540 2256 c0 -21 4 -23 50 -23 46 0 50 2 50 23 0 22 -4 24 -50 24
-46 0 -50 -2 -50 -24z"/>
<path d="M2650 2255 c0 -16 6 -25 15 -25 9 0 15 9 15 25 0 16 -6 25 -15 25 -9
0 -15 -9 -15 -25z"/>
<path d="M2692 2255 c0 -16 2 -22 5 -12 2 9 2 23 0 30 -3 6 -5 -1 -5 -18z"/>
<path d="M3949 2250 c-57 -5 -57 -5 -113 -77 -31 -39 -56 -74 -56 -77 0 -3 86
-6 190 -6 105 0 190 4 190 8 0 5 -25 40 -55 79 -59 77 -68 81 -156 73z m61
-75 l0 -65 -40 0 -40 0 0 65 0 65 40 0 40 0 0 -65z m-90 -5 l0 -60 -50 0 c-57
0 -57 -3 -1 73 19 26 38 47 43 47 4 0 8 -27 8 -60z m159 5 c22 -30 41 -57 41
-60 0 -3 -20 -5 -45 -5 l-45 0 0 60 c0 33 2 60 4 60 2 0 22 -25 45 -55z"/>
<path d="M2346 2157 c-14 -29 -26 -62 -26 -73 0 -10 14 12 30 50 35 83 32 101
-4 23z"/>
<path d="M2731 2194 c-1 -6 10 -36 23 -65 14 -30 25 -47 25 -39 0 18 -47 120
-48 104z"/>
<path d="M2402 2165 c0 -16 2 -22 5 -12 2 9 2 23 0 30 -3 6 -5 -1 -5 -18z"/>
<path d="M2420 2163 c0 -14 6 -23 15 -23 9 0 15 9 15 23 0 14 -6 24 -15 24 -9
0 -15 -10 -15 -24z"/>
<path d="M2460 2165 c0 -16 6 -25 15 -25 9 0 15 9 15 25 0 16 -6 25 -15 25 -9
0 -15 -9 -15 -25z"/>
<path d="M2506 2183 c-12 -12 -6 -43 9 -43 8 0 15 9 15 19 0 21 -13 34 -24 24z"/>
<path d="M2540 2163 c0 -21 4 -23 50 -23 46 0 50 2 50 23 0 21 -4 23 -50 23
-46 0 -50 -2 -50 -23z"/>
<path d="M2650 2163 c0 -14 6 -23 15 -23 9 0 15 9 15 23 0 14 -6 24 -15 24 -9
0 -15 -10 -15 -24z"/>
<path d="M2692 2165 c0 -16 2 -22 5 -12 2 9 2 23 0 30 -3 6 -5 -1 -5 -18z"/>
<path d="M1730 2144 c0 -12 9 -14 42 -12 59 4 63 28 4 28 -35 0 -46 -4 -46
-16z"/>
<path d="M2102 2148 c3 -7 23 -14 46 -16 33 -2 42 0 42 12 0 12 -11 16 -46 16
-32 0 -44 -4 -42 -12z"/>
<path d="M2493 2113 c26 -2 67 -2 90 0 23 2 2 3 -48 3 -49 0 -68 -1 -42 -3z"/>
<path d="M2643 2113 c9 -2 23 -2 30 0 6 3 -1 5 -18 5 -16 0 -22 -2 -12 -5z"/>
<path d="M2731 2099 c-1 -9 10 -41 23 -70 14 -30 25 -47 25 -38 1 9 -10 41
-23 70 -14 30 -25 47 -25 38z"/>
<path d="M1768 1968 c-3 -129 -4 -133 -25 -136 l-23 -3 0 -301 c0 -166 2 -299
4 -297 3 2 6 38 7 79 2 90 5 100 30 100 16 0 19 -8 19 -55 0 -54 0 -55 30 -55
30 0 30 1 30 55 0 54 0 55 30 55 17 0 30 -5 30 -11 0 -5 -6 -7 -12 -3 -9 6 -9
3 1 -9 8 -10 11 -27 7 -42 -5 -18 -2 -25 9 -25 8 0 15 7 15 15 0 11 11 15 40
15 29 0 40 -4 40 -15 0 -9 -9 -15 -25 -15 -14 0 -25 -4 -25 -10 0 -5 11 -10
25 -10 32 0 34 -30 3 -31 l-23 0 23 -10 c17 -6 22 -14 17 -28 -3 -10 -3 -26 1
-35 8 -20 44 -21 44 -1 0 8 -4 15 -10 15 -14 0 -12 28 2 32 16 6 13 99 -4 110
-8 4 17 9 57 10 l70 2 -70 6 c-38 4 -64 7 -57 8 6 1 12 7 12 13 0 6 -7 8 -17
4 -12 -4 -15 -3 -8 4 6 5 39 12 75 14 l65 3 -67 2 c-37 1 -70 6 -73 12 -3 6 1
7 9 4 12 -5 16 1 16 21 0 20 -4 26 -14 22 -11 -4 -13 -1 -9 11 4 9 11 20 17
24 14 10 9 100 -6 110 -8 4 17 9 57 10 l70 2 -75 6 c-41 4 -67 7 -57 8 20 2
23 18 5 25 -7 3 25 5 72 5 47 -1 70 -3 53 -5 -18 -2 -33 -8 -33 -12 0 -4 92
-8 205 -9 l205 0 0 24 c0 31 -27 32 -33 2 l-4 -23 -2 23 c-1 26 -27 30 -34 5
-4 -17 -5 -17 -6 0 0 9 -8 17 -16 17 -8 0 -15 -8 -16 -17 0 -15 -2 -15 -9 2
-7 17 -9 17 -9 3 -1 -11 -9 -18 -22 -18 -11 0 -17 4 -14 10 8 14 15 50 9 50
-3 0 -10 -13 -15 -30 -11 -30 -12 -30 -85 -30 l-74 0 0 79 c0 75 -1 80 -22 83
-22 3 -23 7 -26 136 l-3 132 -189 0 -189 0 -3 -132z m138 113 c-17 -7 -17 -8
-2 -24 15 -15 16 -17 2 -17 -22 0 -20 -37 2 -43 9 -3 -17 -5 -58 -5 -41 0 -69
2 -62 5 6 2 12 14 11 26 0 21 -1 21 -9 2 -7 -15 -9 -10 -9 23 l-1 42 73 -1
c41 0 64 -4 53 -8z m84 -1 c0 -5 -13 -10 -30 -10 -16 0 -30 5 -30 10 0 6 14
10 30 10 17 0 30 -4 30 -10z m149 -40 l1 -50 -70 0 -70 0 0 29 c0 17 5 33 10
36 6 3 10 12 10 18 0 7 -4 6 -10 -3 -8 -13 -10 -12 -10 3 0 14 10 17 69 17
l68 0 2 -50z m-149 0 c0 -5 -13 -10 -30 -10 -16 0 -30 5 -30 10 0 6 14 10 30
10 17 0 30 -4 30 -10z m0 -35 c0 -10 -10 -15 -30 -15 -20 0 -30 5 -30 15 0 10
10 15 30 15 20 0 30 -5 30 -15z m-119 -37 c0 -10 2 -10 6 0 2 6 14 11 26 11
19 -1 20 -2 3 -6 -15 -4 -16 -7 -5 -14 10 -6 4 -9 -18 -9 -20 0 -33 5 -34 13
0 10 -2 10 -6 0 -7 -19 -63 -17 -63 2 0 19 90 22 91 3z m119 -3 c0 -10 -10
-15 -30 -15 -20 0 -30 5 -30 15 0 10 10 15 30 15 20 0 30 -5 30 -15z m150 -2
c0 -15 -2 -16 -10 -3 -6 10 -10 11 -10 3 0 -8 -14 -13 -35 -13 -21 0 -35 5
-36 13 0 10 -2 10 -6 0 -2 -7 -14 -12 -26 -12 -21 1 -21 2 -2 7 l20 5 -20 8
c-13 5 6 8 53 8 62 1 72 -1 72 -16z m-240 -38 c-10 -12 -10 -18 0 -30 11 -13
4 -15 -54 -15 l-66 0 0 30 0 30 66 0 c58 0 65 -2 54 -15z m90 5 c0 -5 -13 -10
-30 -10 -16 0 -30 5 -30 10 0 6 14 10 30 10 17 0 30 -4 30 -10z m143 3 c-7 -2
-13 -13 -13 -23 0 -10 6 -21 13 -23 6 -3 -22 -5 -63 -5 -41 0 -69 2 -62 5 6 2
12 13 12 23 0 10 -6 21 -12 23 -7 3 21 5 62 5 41 0 69 -2 63 -5z m-143 -43 c0
-5 -13 -10 -30 -10 -16 0 -30 5 -30 10 0 6 14 10 30 10 17 0 30 -4 30 -10z
m-119 -32 c0 -10 2 -10 6 0 2 6 11 12 19 12 9 0 13 -4 10 -9 -4 -5 0 -12 6
-14 7 -3 -20 -6 -59 -6 -59 -1 -73 2 -73 14 0 19 90 22 91 3z m119 -5 c0 -8
-12 -13 -30 -13 -18 0 -30 5 -30 13 0 8 12 13 30 13 18 0 30 -5 30 -13z m31 8
c8 12 11 11 19 -1 6 -10 10 -11 10 -2 0 8 16 12 45 12 33 0 45 -4 45 -15 0
-12 -14 -15 -70 -15 -60 0 -70 2 -69 18 0 12 2 13 6 3 5 -11 7 -11 14 0z
m-121 -52 c0 -5 -4 -9 -10 -9 -5 0 -10 -5 -10 -11 0 -5 5 -7 10 -4 6 4 10 -9
9 -32 -1 -32 -2 -34 -8 -13 -5 18 -14 25 -34 26 -26 1 -26 1 -2 -3 20 -3 25
-10 25 -33 0 -16 6 -31 13 -33 6 -3 -25 -6 -70 -6 l-83 -1 0 64 0 63 80 1 c44
1 80 -3 80 -9z m98 -6 c2 -9 -9 -13 -37 -13 -39 0 -50 8 -34 24 11 11 66 2 71
-11z m182 -49 l0 -64 -87 1 c-49 1 -80 3 -70 6 22 6 23 50 0 55 -15 3 -15 5 3
22 13 14 15 21 6 24 -32 10 -4 19 68 19 l80 1 0 -64z m-180 1 c0 -11 -11 -15
-40 -15 -29 0 -40 4 -40 15 0 11 11 15 40 15 29 0 40 -4 40 -15z m0 -50 c0
-11 -11 -15 -40 -15 -29 0 -40 4 -40 15 0 11 11 15 40 15 29 0 40 -4 40 -15z
m-110 -35 c-13 -9 -13 -11 0 -20 10 -7 -10 -10 -67 -10 -76 0 -83 2 -83 20 0
18 7 20 83 20 57 0 77 -3 67 -10z m108 -7 c2 -9 -9 -13 -37 -13 -39 0 -50 8
-34 24 11 11 66 2 71 -11z m-105 -40 c-7 -2 -13 -18 -13 -34 0 -18 4 -28 10
-24 6 3 10 -3 10 -15 0 -12 -4 -18 -10 -15 -5 3 -10 -1 -10 -10 0 -9 5 -13 10
-10 6 3 10 -3 10 -14 0 -12 -4 -21 -10 -21 -15 0 -12 -47 3 -53 6 -3 -2 -6
-20 -6 -22 -1 -33 4 -36 17 -3 9 -5 -7 -6 -35 -1 -47 -3 -53 -22 -53 -21 0
-21 4 -17 75 3 41 1 72 -4 69 -4 -3 -8 -21 -8 -40 0 -27 -4 -34 -20 -34 -19 0
-20 7 -20 105 l0 105 83 -1 c45 0 76 -3 70 -6z m107 -8 c0 -11 -11 -15 -40
-15 -29 0 -40 4 -40 15 0 11 11 15 40 15 29 0 40 -4 40 -15z m0 -50 c0 -11
-11 -15 -40 -15 -29 0 -40 4 -40 15 0 11 11 15 40 15 29 0 40 -4 40 -15z m28
-31 c-14 -14 -15 -14 -10 11 3 19 8 23 15 16 8 -8 7 -16 -5 -27z m-29 -9 c9
-10 -19 -22 -46 -19 -29 3 -37 9 -29 23 6 10 64 7 75 -4z m1 -50 c0 -11 -11
-15 -40 -15 -29 0 -40 4 -40 15 0 11 11 15 40 15 29 0 40 -4 40 -15z m0 -50
c0 -11 -11 -15 -40 -15 -29 0 -40 4 -40 15 0 11 11 15 40 15 29 0 40 -4 40
-15z m-2 -47 c-3 -7 -20 -13 -38 -13 -18 0 -35 6 -37 13 -3 8 8 12 37 12 29 0
40 -4 38 -12z m42 -97 c0 -5 -6 -14 -14 -20 -12 -10 -13 -8 -9 8 5 21 23 30
23 12z"/>
<path d="M1790 2071 c0 -6 4 -13 10 -16 6 -3 7 1 4 9 -7 18 -14 21 -14 7z"/>
<path d="M1837 2068 c-3 -10 3 -14 23 -14 20 0 26 4 23 14 -5 11 -7 11 -14 0
-8 -11 -10 -11 -18 0 -7 11 -9 11 -14 0z"/>
<path d="M1810 2020 c0 -11 5 -20 10 -20 6 0 10 9 10 20 0 11 -4 20 -10 20 -5
0 -10 -9 -10 -20z"/>
<path d="M1840 2020 c0 -11 4 -20 9 -20 5 0 7 9 4 20 -3 11 -7 20 -9 20 -2 0
-4 -9 -4 -20z"/>
<path d="M1872 2020 c0 -14 2 -19 5 -12 2 6 2 18 0 25 -3 6 -5 1 -5 -13z"/>
<path d="M2037 2067 c-3 -8 1 -14 8 -14 7 0 11 6 8 14 -3 7 -6 13 -8 13 -2 0
-5 -6 -8 -13z"/>
<path d="M2069 2066 c15 -18 53 -15 58 4 4 13 3 13 -6 0 -9 -12 -12 -13 -20
-1 -7 11 -9 11 -14 0 -4 -10 -6 -10 -6 -1 -1 6 -6 12 -12 12 -8 0 -8 -4 0 -14z"/>
<path d="M2012 2020 c0 -14 2 -19 5 -12 2 6 2 18 0 25 -3 6 -5 1 -5 -13z"/>
<path d="M2042 2020 c0 -14 2 -19 5 -12 2 6 2 18 0 25 -3 6 -5 1 -5 -13z"/>
<path d="M2060 2033 c0 -5 5 -15 10 -23 8 -12 10 -11 10 8 0 12 -4 22 -10 22
-5 0 -10 -3 -10 -7z"/>
<path d="M2092 2020 c0 -14 2 -19 5 -12 2 6 2 18 0 25 -3 6 -5 1 -5 -13z"/>
<path d="M2122 2020 c0 -14 2 -19 5 -12 2 6 2 18 0 25 -3 6 -5 1 -5 -13z"/>
<path d="M1792 1910 c0 -14 2 -19 5 -12 2 6 2 18 0 25 -3 6 -5 1 -5 -13z"/>
<path d="M1810 1916 c0 -8 5 -18 10 -21 6 -3 10 3 10 14 0 12 -4 21 -10 21 -5
0 -10 -6 -10 -14z"/>
<path d="M1840 1910 c0 -11 4 -20 8 -20 4 0 8 9 8 20 0 11 -4 20 -8 20 -4 0
-8 -9 -8 -20z"/>
<path d="M1872 1910 c0 -14 2 -19 5 -12 2 6 2 18 0 25 -3 6 -5 1 -5 -13z"/>
<path d="M2042 1910 c0 -14 2 -19 5 -12 2 6 2 18 0 25 -3 6 -5 1 -5 -13z"/>
<path d="M2060 1910 c0 -11 5 -20 10 -20 6 0 10 9 10 20 0 11 -4 20 -10 20 -5
0 -10 -9 -10 -20z"/>
<path d="M2092 1910 c0 -14 2 -19 5 -12 2 6 2 18 0 25 -3 6 -5 1 -5 -13z"/>
<path d="M1751 1794 c0 -11 3 -14 6 -6 3 7 2 16 -1 19 -3 4 -6 -2 -5 -13z"/>
<path d="M1780 1796 c0 -9 5 -16 10 -16 6 0 10 4 10 9 0 6 -4 13 -10 16 -5 3
-10 -1 -10 -9z"/>
<path d="M1810 1795 c0 -8 5 -15 10 -15 6 0 10 7 10 15 0 8 -4 15 -10 15 -5 0
-10 -7 -10 -15z"/>
<path d="M1752 1725 c0 -16 2 -22 5 -12 2 9 2 23 0 30 -3 6 -5 -1 -5 -18z"/>
<path d="M1780 1725 c0 -14 5 -25 10 -25 6 0 10 11 10 25 0 14 -4 25 -10 25
-5 0 -10 -11 -10 -25z"/>
<path d="M1810 1725 c0 -14 5 -25 10 -25 6 0 10 11 10 25 0 14 -4 25 -10 25
-5 0 -10 -11 -10 -25z"/>
<path d="M1852 1725 c0 -16 2 -22 5 -12 2 9 2 23 0 30 -3 6 -5 -1 -5 -18z"/>
<path d="M2090 1796 c0 -9 5 -16 10 -16 6 0 10 4 10 9 0 6 -4 13 -10 16 -5 3
-10 -1 -10 -9z"/>
<path d="M2120 1796 c0 -9 5 -16 10 -16 6 0 10 4 10 9 0 6 -4 13 -10 16 -5 3
-10 -1 -10 -9z"/>
<path d="M2161 1794 c0 -11 3 -14 6 -6 3 7 2 16 -1 19 -3 4 -6 -2 -5 -13z"/>
<path d="M2048 1763 c7 -3 16 -2 19 1 4 3 -2 6 -13 5 -11 0 -14 -3 -6 -6z"/>
<path d="M2062 1725 c0 -16 2 -22 5 -12 2 9 2 23 0 30 -3 6 -5 -1 -5 -18z"/>
<path d="M2090 1724 c0 -14 4 -23 10 -19 6 3 10 15 10 26 0 10 -4 19 -10 19
-5 0 -10 -12 -10 -26z"/>
<path d="M2120 1725 c0 -14 5 -25 10 -25 6 0 10 11 10 25 0 14 -4 25 -10 25
-5 0 -10 -11 -10 -25z"/>
<path d="M2162 1725 c0 -16 2 -22 5 -12 2 9 2 23 0 30 -3 6 -5 -1 -5 -18z"/>
<path d="M1780 1660 c0 -5 5 -10 10 -10 6 0 10 5 10 10 0 6 -4 10 -10 10 -5 0
-10 -4 -10 -10z"/>
<path d="M1810 1660 c0 -5 5 -10 10 -10 6 0 10 5 10 10 0 6 -4 10 -10 10 -5 0
-10 -4 -10 -10z"/>
<path d="M1752 1590 c0 -19 2 -27 5 -17 2 9 2 25 0 35 -3 9 -5 1 -5 -18z"/>
<path d="M1780 1589 c0 -17 4 -28 10 -24 6 3 10 17 10 31 0 13 -4 24 -10 24
-5 0 -10 -14 -10 -31z"/>
<path d="M1810 1590 c0 -16 5 -30 10 -30 6 0 10 14 10 30 0 17 -4 30 -10 30
-5 0 -10 -13 -10 -30z"/>
<path d="M1852 1590 c0 -19 2 -27 5 -17 2 9 2 25 0 35 -3 9 -5 1 -5 -18z"/>
<path d="M1777 1529 c6 -22 23 -26 23 -5 0 8 -6 16 -14 19 -10 4 -12 0 -9 -14z"/>
<path d="M1823 1535 c-3 -9 -3 -18 -1 -21 3 -3 8 4 11 16 6 23 -1 27 -10 5z"/>
<path d="M1751 1524 c0 -11 3 -14 6 -6 3 7 2 16 -1 19 -3 4 -6 -2 -5 -13z"/>
<path d="M1851 1524 c0 -11 3 -14 6 -6 3 7 2 16 -1 19 -3 4 -6 -2 -5 -13z"/>
<path d="M1820 1485 c0 -8 2 -15 4 -15 2 0 6 7 10 15 3 8 1 15 -4 15 -6 0 -10
-7 -10 -15z"/>
<path d="M1752 1455 c0 -16 2 -22 5 -12 2 9 2 23 0 30 -3 6 -5 -1 -5 -18z"/>
<path d="M1852 1455 c0 -16 2 -22 5 -12 2 9 2 23 0 30 -3 6 -5 -1 -5 -18z"/>
<path d="M2340 2045 c-12 -30 -20 -59 -18 -66 2 -6 16 19 30 55 14 36 23 66
18 66 -4 0 -18 -25 -30 -55z"/>
<path d="M5140 2090 c0 -5 5 -10 11 -10 5 0 7 5 4 10 -3 6 -8 10 -11 10 -2 0
-4 -4 -4 -10z"/>
<path d="M2402 2065 c0 -16 2 -22 5 -12 2 9 2 23 0 30 -3 6 -5 -1 -5 -18z"/>
<path d="M2420 2065 c0 -16 6 -25 15 -25 9 0 15 9 15 25 0 16 -6 25 -15 25 -9
0 -15 -9 -15 -25z"/>
<path d="M2460 2065 c0 -16 6 -25 15 -25 9 0 15 9 15 25 0 16 -6 25 -15 25 -9
0 -15 -9 -15 -25z"/>
<path d="M2500 2065 c0 -16 6 -25 15 -25 9 0 15 9 15 25 0 16 -6 25 -15 25 -9
0 -15 -9 -15 -25z"/>
<path d="M2540 2065 c0 -23 3 -25 50 -25 47 0 50 2 50 25 0 23 -3 25 -50 25
-47 0 -50 -2 -50 -25z m67 -7 c-3 -8 -6 -5 -6 6 -1 11 2 17 5 13 3 -3 4 -12 1
-19z"/>
<path d="M2650 2065 c0 -16 6 -25 15 -25 9 0 15 9 15 25 0 16 -6 25 -15 25 -9
0 -15 -9 -15 -25z"/>
<path d="M2692 2065 c0 -16 2 -22 5 -12 2 9 2 23 0 30 -3 6 -5 -1 -5 -18z"/>
<path d="M3775 2060 c-4 -7 63 -10 194 -10 127 0 201 4 201 10 0 6 -71 10
-194 10 -119 0 -197 -4 -201 -10z"/>
<path d="M240 2040 c0 -5 5 -10 11 -10 5 0 7 5 4 10 -3 6 -8 10 -11 10 -2 0
-4 -4 -4 -10z"/>
<path d="M3908 2032 c-81 -1 -138 -7 -138 -12 0 -6 77 -10 200 -10 127 0 200
4 200 10 0 6 -15 10 -32 11 -18 0 -46 1 -63 2 -16 1 -92 1 -167 -1z"/>
<path d="M5490 1629 l0 -404 -405 3 -405 3 2 -83 2 -83 3 72 4 72 284 0 c413
1 562 3 543 8 -17 4 -18 33 -17 405 0 220 -2 402 -5 406 -3 3 -6 -177 -6 -399z"/>
<path d="M2482 2013 c37 -2 100 -2 140 0 40 1 10 3 -67 3 -77 0 -110 -1 -73
-3z"/>
<path d="M5200 1705 c0 -290 -4 -339 -25 -305 -3 6 -22 10 -41 10 -32 0 -33
-1 -22 -20 10 -15 24 -20 55 -20 l43 0 0 325 c0 179 -2 325 -5 325 -3 0 -5
-142 -5 -315z"/>
<path d="M2343 1955 c-23 -56 -31 -94 -13 -65 18 32 49 120 42 120 -4 0 -17
-25 -29 -55z"/>
<path d="M2731 2000 c0 -8 11 -40 24 -70 13 -30 24 -46 24 -35 0 24 -47 127
-48 105z"/>
<path d="M2944 1988 c3 -13 6 -38 6 -55 0 -24 5 -33 16 -33 11 0 14 5 10 16
-3 9 -6 31 -6 49 0 21 -6 35 -16 39 -13 5 -15 2 -10 -16z"/>
<path d="M2402 1965 c0 -16 2 -22 5 -12 2 9 2 23 0 30 -3 6 -5 -1 -5 -18z"/>
<path d="M2420 1965 c0 -16 6 -25 15 -25 9 0 15 9 15 25 0 16 -6 25 -15 25 -9
0 -15 -9 -15 -25z"/>
<path d="M2460 1965 c0 -16 6 -25 15 -25 9 0 15 9 15 25 0 16 -6 25 -15 25 -9
0 -15 -9 -15 -25z"/>
<path d="M2500 1965 c0 -16 6 -25 15 -25 9 0 15 9 15 25 0 16 -6 25 -15 25 -9
0 -15 -9 -15 -25z"/>
<path d="M2540 1965 c0 -23 3 -25 49 -25 39 0 51 4 54 18 4 16 5 16 6 0 2 -28
31 -22 31 6 0 22 -3 24 -70 25 -69 1 -70 1 -70 -24z"/>
<path d="M2692 1965 c0 -16 2 -22 5 -12 2 9 2 23 0 30 -3 6 -5 -1 -5 -18z"/>
<path d="M1358 1963 c45 -2 119 -2 165 0 45 1 8 3 -83 3 -91 0 -128 -2 -82 -3z"/>
<path d="M3770 1940 c0 -6 73 -10 200 -10 127 0 200 4 200 10 0 6 -73 10 -200
10 -127 0 -200 -4 -200 -10z"/>
<path d="M5293 1923 c31 -2 83 -2 115 0 31 2 5 3 -58 3 -63 0 -89 -1 -57 -3z"/>
<path d="M2350 1875 c-21 -49 -37 -104 -27 -95 11 10 58 132 53 137 -3 3 -15
-15 -26 -42z"/>
<path d="M2730 1909 c0 -8 11 -42 25 -75 13 -32 24 -52 25 -43 0 8 -11 42 -25
75 -13 32 -24 52 -25 43z"/>
<path d="M4468 1865 c2 -19 6 -35 8 -35 2 0 4 16 4 35 0 19 -4 35 -8 35 -4 0
-6 -16 -4 -35z"/>
<path d="M4503 1865 c0 -22 2 -30 4 -17 2 12 2 30 0 40 -3 9 -5 -1 -4 -23z"/>
<path d="M4533 1865 c0 -22 2 -30 4 -17 2 12 2 30 0 40 -3 9 -5 -1 -4 -23z"/>
<path d="M4563 1865 c0 -22 2 -30 4 -17 2 12 2 30 0 40 -3 9 -5 -1 -4 -23z"/>
<path d="M4593 1865 c0 -22 2 -30 4 -17 2 12 2 30 0 40 -3 9 -5 -1 -4 -23z"/>
<path d="M5240 1890 c0 -6 43 -10 110 -10 67 0 110 4 110 10 0 6 -43 10 -110
10 -67 0 -110 -4 -110 -10z"/>
<path d="M2402 1870 c0 -14 2 -19 5 -12 2 6 2 18 0 25 -3 6 -5 1 -5 -13z"/>
<path d="M2420 1870 c0 -11 7 -20 15 -20 8 0 15 9 15 20 0 11 -7 20 -15 20 -8
0 -15 -9 -15 -20z"/>
<path d="M2460 1870 c0 -11 7 -20 15 -20 8 0 15 9 15 20 0 11 -7 20 -15 20 -8
0 -15 -9 -15 -20z"/>
<path d="M2500 1870 c0 -11 7 -20 15 -20 8 0 15 9 15 20 0 11 -7 20 -15 20 -8
0 -15 -9 -15 -20z"/>
<path d="M2540 1870 c0 -17 7 -20 50 -20 43 0 50 3 50 20 0 17 -7 20 -50 20
-43 0 -50 -3 -50 -20z"/>
<path d="M2650 1870 c0 -11 7 -20 15 -20 8 0 15 9 15 20 0 11 -7 20 -15 20 -8
0 -15 -9 -15 -20z"/>
<path d="M2692 1870 c0 -14 2 -19 5 -12 2 6 2 18 0 25 -3 6 -5 1 -5 -13z"/>
<path d="M3770 1860 c0 -9 96 -12 350 -12 46 0 50 1 50 12 0 6 -73 10 -200 10
-127 0 -200 -4 -200 -10z"/>
<path d="M470 1850 c0 -5 5 -10 11 -10 5 0 7 5 4 10 -3 6 -8 10 -11 10 -2 0
-4 -4 -4 -10z"/>
<path d="M3486 1843 c-3 -10 -7 -36 -10 -58 -4 -31 -2 -27 9 15 8 30 12 56 10
58 -2 2 -6 -5 -9 -15z"/>
<path d="M3587 1830 c11 -61 23 -90 17 -40 -4 25 -10 52 -15 60 -5 9 -6 2 -2
-20z"/>
<path d="M5240 1850 c0 -6 43 -10 110 -10 67 0 110 4 110 10 0 6 -43 10 -110
10 -67 0 -110 -4 -110 -10z"/>
<path d="M3157 1833 c-14 -13 -6 -23 19 -23 20 0 25 -4 22 -17 -4 -16 1 -18
38 -15 l44 4 3 -254 2 -253 3 253 c1 157 6 252 12 252 6 0 11 -96 13 -252 l2
-253 3 253 c1 160 6 252 12 252 6 0 10 -59 10 -157 0 -86 2 -154 5 -152 2 3 5
74 6 157 l1 152 28 0 c26 0 39 18 40 53 0 9 -254 10 -263 0z"/>
<path d="M2345 1765 c-14 -32 -25 -65 -25 -74 1 -9 14 15 31 53 16 38 27 71
25 74 -3 2 -17 -21 -31 -53z"/>
<path d="M2730 1809 c0 -9 11 -41 24 -70 14 -30 25 -47 25 -39 0 8 -11 40 -24
70 -13 30 -24 48 -25 39z"/>
<path d="M5245 1810 c-10 -17 17 -21 115 -18 64 2 95 7 98 16 5 15 -203 18
-213 2z"/>
<path d="M1353 1803 c48 -2 125 -2 170 0 45 1 6 3 -88 3 -93 0 -130 -2 -82 -3z"/>
<path d="M2402 1775 c0 -16 2 -22 5 -12 2 9 2 23 0 30 -3 6 -5 -1 -5 -18z"/>
<path d="M2420 1775 c0 -16 6 -25 15 -25 9 0 15 9 15 25 0 16 -6 25 -15 25 -9
0 -15 -9 -15 -25z"/>
<path d="M2460 1775 c0 -16 6 -25 15 -25 9 0 15 9 15 25 0 16 -6 25 -15 25 -9
0 -15 -9 -15 -25z"/>
<path d="M2500 1775 c0 -16 6 -25 15 -25 9 0 15 9 15 25 0 16 -6 25 -15 25 -9
0 -15 -9 -15 -25z"/>
<path d="M2540 1775 c0 -23 3 -25 50 -25 47 0 50 2 50 25 0 23 -3 25 -50 25
-47 0 -50 -2 -50 -25z"/>
<path d="M2650 1775 c0 -16 6 -25 15 -25 9 0 15 9 15 25 0 16 -6 25 -15 25 -9
0 -15 -9 -15 -25z"/>
<path d="M2692 1775 c0 -16 2 -22 5 -12 2 9 2 23 0 30 -3 6 -5 -1 -5 -18z"/>
<path d="M2900 1790 c0 -6 27 -10 60 -10 33 0 60 4 60 10 0 6 -27 10 -60 10
-33 0 -60 -4 -60 -10z"/>
<path d="M3770 1780 c0 -12 -10 -12 205 -12 213 1 195 0 195 12 0 6 -73 10
-200 10 -127 0 -200 -4 -200 -10z"/>
<path d="M1278 1773 c7 -3 16 -2 19 1 4 3 -2 6 -13 5 -11 0 -14 -3 -6 -6z"/>
<path d="M1313 1761 c-3 -10 -12 -18 -21 -16 -10 1 -11 0 -4 -2 6 -3 12 -12
11 -21 0 -25 -17 -99 -18 -84 -1 9 -32 12 -121 12 l-120 0 0 -230 0 -230 -230
0 c-126 0 -230 -3 -230 -7 0 -5 101 -7 224 -5 l223 3 6 -37 c4 -21 4 -41 1
-46 -3 -4 -81 -8 -175 -8 l-169 0 0 24 c0 13 6 27 13 29 13 6 -65 9 -223 8
-58 0 -142 -1 -187 -1 l-83 0 0 -54 c0 -29 -3 -74 -6 -100 -6 -43 -9 -46 -35
-46 -16 0 -29 -4 -29 -10 0 -5 4 -10 10 -10 5 0 11 -26 13 -57 l3 -58 2 58 2
58 88 -3 87 -3 2 -55 c1 -30 -1 -72 -4 -92 l-6 -38 -78 0 c-69 0 -78 2 -84 20
-6 17 -16 22 -41 19 -4 0 -11 5 -15 13 -7 10 -9 9 -9 -4 0 -13 8 -18 26 -18
22 0 25 -2 14 -15 -7 -8 -28 -15 -47 -15 -33 0 -34 -1 -31 -37 l3 -38 2985 0
2985 0 3 38 c3 34 1 37 -22 37 -14 0 -26 5 -26 11 0 5 4 7 10 4 5 -3 7 0 4 8
-3 8 -16 13 -32 11 -15 -2 -19 -1 -9 2 9 3 17 12 17 20 0 8 -4 13 -9 10 -5 -4
-11 -3 -13 1 -6 14 -69 43 -92 43 -12 0 -27 5 -34 12 -7 7 -12 8 -12 2 0 -5
-4 -4 -8 3 -4 6 -18 14 -32 18 -22 5 -25 2 -26 -20 -2 -21 6 -29 47 -48 48
-22 60 -42 38 -64 -15 -15 -56 -4 -62 18 -3 11 -11 17 -19 14 -8 -3 -27 -1
-42 5 -26 10 -28 9 -23 -11 6 -20 4 -21 -58 -14 -70 7 -118 -1 -94 -16 9 -5
-9 -9 -49 -9 -38 0 -61 4 -57 10 3 5 12 7 20 3 20 -7 67 5 61 16 -7 11 -151 5
-173 -8 -11 -6 -24 -5 -36 3 -15 8 -21 8 -24 -1 -5 -15 -103 -18 -103 -4 0 5
-8 11 -17 14 -14 3 -12 6 10 15 27 12 30 36 3 26 -8 -3 -17 0 -22 7 -4 7 -3
10 2 6 5 -3 8 41 6 104 l-3 109 54 0 c29 0 57 -3 61 -7 4 -5 12 -8 18 -8 14 0
20 -26 22 -85 1 -27 7 -50 16 -57 13 -10 11 -12 -8 -8 -12 2 -27 7 -32 10 -6
3 -10 -1 -10 -9 0 -9 11 -16 28 -18 19 -2 27 -9 27 -23 0 -25 48 -49 81 -41
13 4 24 13 24 21 0 8 -3 14 -8 12 -4 -1 -26 6 -48 16 -32 15 -41 24 -39 40 1
12 3 34 4 48 1 22 7 28 31 31 25 4 30 1 31 -16 0 -21 1 -21 9 -1 8 21 8 21 23
-25 3 -8 6 -2 6 14 1 20 5 27 16 23 10 -5 14 1 12 23 -1 15 -5 26 -9 23 -5 -2
-8 1 -8 6 0 6 -16 11 -35 11 -19 0 -35 4 -35 10 0 6 75 9 194 8 187 -1 194 -1
191 -20 -3 -15 1 -19 18 -16 27 4 35 35 10 41 -17 4 -17 5 0 6 24 1 22 31 -3
31 -11 0 -20 -7 -20 -15 0 -13 -28 -15 -195 -15 l-195 0 0 25 c0 16 -6 25 -15
25 -9 0 -15 -9 -15 -25 0 -18 -5 -25 -19 -25 -11 0 -23 5 -26 10 -3 5 -13 10
-21 10 -8 0 -12 -5 -9 -10 4 -6 -21 -10 -68 -10 -57 0 -76 -4 -81 -15 -3 -8
-2 -15 2 -15 6 0 6 -66 2 -226 0 -17 -6 -20 -31 -16 l-31 5 4 58 c2 45 -1 60
-12 65 -11 5 -9 9 10 15 l25 8 -27 -2 c-19 -1 -39 9 -70 38 -35 32 -33 30 9
-15 43 -46 51 -61 50 -90 -3 -47 -11 -57 -44 -55 -18 2 -20 1 -5 -2 17 -3 22
-11 22 -34 0 -24 -4 -29 -24 -29 -16 0 -26 7 -31 23 -6 19 -8 19 -12 5 -2 -10
-9 -18 -14 -18 -12 0 -8 32 6 42 14 11 -2 21 -21 14 -13 -5 -14 -10 -6 -18 19
-19 1 -38 -38 -38 -43 0 -65 28 -30 37 33 9 21 30 -14 24 -5 -1 -6 10 -4 24
l5 25 -99 0 c-94 0 -98 -1 -88 -19 14 -27 3 -49 -25 -48 -14 0 -22 3 -19 8 3
5 -2 9 -10 9 -9 0 -16 5 -16 11 0 5 -3 8 -7 6 -5 -3 -6 17 -5 44 l4 49 183 0
c166 0 183 2 187 17 5 17 -8 18 -184 16 l-188 -3 0 30 c0 30 -8 35 -52 31 -15
-2 -18 6 -18 38 l0 41 -62 0 c-61 0 -78 -10 -19 -12 33 -1 45 -27 14 -29 -15
0 -15 -2 2 -8 11 -5 27 -6 34 -3 10 4 11 7 3 10 -17 5 -15 32 3 32 10 0 15
-11 15 -35 0 -35 -1 -35 -36 -32 l-35 4 3 -78 c2 -58 0 -79 -9 -79 -10 0 -13
28 -13 105 0 67 -4 105 -11 105 -7 0 -9 -39 -7 -117 3 -116 3 -118 27 -121 32
-5 41 12 41 81 l0 58 43 -3 42 -3 5 -83 c3 -45 3 -82 0 -82 -3 0 -6 -12 -5
-27 0 -26 -3 -28 -42 -31 -43 -3 -43 -3 -43 30 0 25 -3 29 -10 18 -6 -10 -10
-11 -10 -2 0 7 -13 12 -30 12 -27 0 -30 3 -30 30 0 17 -5 30 -11 30 -7 0 -10
-12 -7 -29 4 -25 0 -30 -21 -34 -14 -3 -38 1 -54 8 -15 8 -24 9 -21 3 4 -6 1
-9 -7 -6 -8 3 -27 -1 -42 -9 -31 -16 -48 -10 -29 9 24 24 13 38 -28 38 -33 0
-40 -3 -40 -19 0 -11 5 -23 10 -26 14 -9 2 -25 -18 -25 -15 0 -15 2 -2 10 11
7 4 10 -27 10 -38 0 -43 -3 -43 -23 0 -21 -4 -23 -31 -19 -17 3 -27 7 -23 11
16 11 15 41 -1 63 -12 19 -15 19 -15 5 0 -9 -7 -17 -15 -17 -20 0 -19 -17 2
-38 16 -16 15 -17 -13 -23 -51 -11 -64 -10 -64 8 0 9 7 24 16 34 10 11 12 19
5 24 -6 3 -11 -1 -11 -9 0 -9 -8 -16 -17 -16 -15 0 -16 2 -3 10 11 7 7 10 -17
10 -26 0 -30 -3 -26 -20 3 -11 12 -20 19 -20 8 0 14 -7 14 -15 0 -20 -66 -21
-73 -1 -3 7 -15 16 -26 19 -16 4 -21 0 -21 -13 0 -16 -8 -18 -49 -17 -27 1
-53 6 -58 11 -5 5 -2 6 6 1 9 -5 12 -4 7 3 -10 17 -26 15 -26 -3 0 -19 -86
-21 -93 -2 -4 9 -6 9 -6 0 -1 -10 -29 -13 -106 -13 -78 0 -104 3 -103 12 2 7
-7 14 -19 16 -16 2 -23 -2 -23 -12 0 -12 -11 -16 -50 -16 -38 0 -50 4 -50 15
0 8 -7 15 -15 15 -8 0 -15 -5 -15 -11 0 -5 6 -7 13 -3 9 5 9 4 0 -6 -8 -9 -35
-10 -107 -5 -91 7 -110 16 -81 37 6 5 6 8 -2 8 -6 0 -15 -4 -18 -10 -7 -11
-55 -9 -55 2 0 4 -8 9 -17 10 -10 0 2 4 27 8 l45 8 -55 -1 c-30 0 -65 5 -77
12 -24 12 -28 7 -24 -28 2 -7 -2 -10 -7 -7 -6 4 -8 -3 -4 -16 5 -18 7 -19 10
-6 2 13 13 17 37 16 19 -1 32 -5 29 -10 -3 -4 14 -8 38 -8 31 -1 39 -3 27 -10
-8 -5 -31 -5 -52 0 -21 4 -37 4 -37 -1 0 -5 -51 -9 -114 -9 -107 0 -143 8
-114 26 6 4 14 2 16 -4 5 -15 92 -16 92 -1 0 7 11 8 30 4 25 -5 29 -4 24 9 -3
9 -11 17 -18 17 -6 1 -22 2 -36 4 -14 1 -31 3 -37 3 -7 1 -13 9 -13 17 0 25
-30 17 -31 -7 -1 -22 -1 -22 -8 2 -5 17 -9 21 -15 12 -4 -6 -21 -12 -37 -12
-17 0 -28 -4 -25 -9 3 -5 16 -7 29 -5 l22 5 -23 -12 c-15 -8 -21 -18 -16 -31
4 -12 0 -18 -11 -18 -21 0 -31 30 -14 42 11 8 10 9 -3 4 -10 -3 -18 -1 -18 4
0 6 6 10 13 11 6 1 -6 5 -27 10 -21 5 -45 17 -52 27 -12 15 -13 12 -8 -19 4
-31 2 -37 -16 -42 -11 -3 -23 -1 -26 4 -6 10 -133 12 -158 3 -9 -3 -16 -15
-16 -25 0 -10 -4 -19 -10 -19 -5 0 -10 7 -10 15 0 8 -7 15 -15 15 -8 0 -15 -5
-15 -11 0 -5 5 -7 12 -3 6 4 8 3 5 -3 -4 -6 -59 -11 -127 -11 -111 -2 -121 0
-116 16 4 12 -5 22 -31 35 -19 10 -38 15 -42 11 -3 -4 0 -9 7 -11 10 -4 10 -8
1 -19 -9 -11 -6 -14 20 -14 17 0 31 -5 31 -11 0 -8 -18 -10 -62 -5 -35 4 -71
7 -80 7 -10 0 -18 7 -18 15 0 16 16 19 25 4 3 -5 16 -10 28 -9 12 0 16 3 10 6
-7 2 -13 10 -13 17 0 7 -6 13 -12 14 -7 1 -26 3 -43 5 -16 1 -37 7 -45 12 -13
7 -13 6 -2 -7 7 -8 10 -24 6 -34 -5 -16 -4 -16 5 -4 9 12 11 11 11 -7 0 -21
-5 -23 -54 -23 -64 0 -86 7 -86 26 0 16 12 18 26 4 14 -14 86 -21 82 -8 -2 6
-13 12 -24 13 -10 2 -38 7 -62 13 -36 8 -43 8 -38 -4 3 -8 0 -14 -7 -14 -8 0
-7 -3 2 -9 19 -12 -152 -18 -264 -10 -65 4 -49 6 85 9 91 2 150 5 133 7 -33 4
-33 4 -33 62 0 31 5 62 12 69 18 18 45 14 62 -10 14 -19 14 -23 -4 -38 -21
-18 -28 -70 -10 -70 6 0 10 11 10 25 0 21 5 25 29 25 17 0 33 -5 37 -11 5 -8
10 -6 16 6 7 11 6 21 -1 28 -8 8 -11 6 -11 -7 0 -9 -4 -15 -9 -12 -13 9 -6 57
10 67 22 14 37 10 53 -13 23 -33 19 -2 -7 56 l-23 49 -27 -61 c-16 -34 -31
-62 -35 -62 -4 0 -18 27 -32 60 -14 33 -27 60 -30 60 -13 0 -50 -120 -51 -167
l-2 -53 -66 0 c-38 1 -77 7 -91 15 -33 19 -51 19 -43 -1 5 -13 0 -15 -23 -12
-16 1 -35 10 -42 18 -12 13 -13 13 -6 0 7 -13 5 -13 -8 -2 -13 10 -17 10 -22
-3 -3 -8 -12 -15 -20 -15 -8 0 -16 -5 -18 -10 -2 -6 -27 -13 -56 -17 -46 -5
-52 -4 -46 11 7 19 -21 23 -32 4 -5 -7 -3 -8 6 -3 9 5 11 4 6 -3 -18 -30 -55
1 -45 38 4 14 7 19 8 13 2 -22 31 -14 31 8 0 16 -5 20 -20 16 -11 -3 -20 -1
-20 4 0 5 9 9 20 9 13 0 20 7 20 20 0 22 -25 28 -33 8 -3 -8 -6 -6 -6 5 -1 11
6 17 19 17 29 0 25 27 -5 34 -16 4 -25 13 -25 26 0 11 -7 20 -15 20 -18 0 -20
-36 -2 -43 10 -4 10 -6 0 -6 -19 -1 -15 -29 5 -34 16 -4 16 -5 0 -6 -11 -1
-18 -9 -18 -20 0 -11 8 -22 18 -24 16 -4 16 -5 0 -6 -11 -1 -18 -9 -18 -20 0
-11 8 -22 18 -24 16 -4 16 -5 0 -6 -21 -1 -24 -27 -5 -34 6 -3 -9 -6 -35 -6
-41 -1 -46 1 -41 16 4 11 8 12 11 5 5 -17 32 -15 32 3 0 9 -9 15 -22 15 -13 0
-33 3 -45 6 -27 7 -30 -8 -7 -30 14 -15 12 -16 -19 -16 -39 0 -59 26 -29 38
20 8 29 36 10 30 -7 -2 -20 -18 -28 -36 -16 -35 -35 -44 -27 -13 3 15 -2 21
-22 27 -14 4 -29 7 -33 6 -5 -1 -8 5 -8 13 0 8 -5 15 -11 15 -6 0 -9 -7 -5
-15 3 -9 0 -15 -8 -15 -8 0 -13 8 -12 18 1 11 12 19 36 22 34 5 35 6 35 53
l-1 47 51 2 c43 1 45 2 13 5 -29 3 -38 9 -38 23 0 15 9 20 43 23 l42 4 -42 1
c-31 1 -43 6 -43 17 0 10 -9 14 -29 11 -16 -2 -35 1 -43 5 -7 5 68 9 174 9
114 0 189 4 193 10 3 6 32 11 63 12 l57 1 -59 6 c-80 8 -89 31 -12 31 31 0 56
5 56 10 0 6 -25 10 -56 10 -77 0 -68 23 12 31 l59 5 -59 5 c-35 2 -61 9 -64
17 -3 9 16 12 70 13 80 1 74 7 -12 11 -41 2 -55 7 -55 18 0 12 19 16 90 21
l90 5 -93 2 c-70 2 -93 5 -90 15 3 8 35 14 94 17 l89 6 -90 4 c-71 4 -90 8
-90 20 0 12 15 16 65 18 104 4 112 9 17 11 -66 1 -88 4 -85 14 3 8 35 14 94
17 l89 6 -89 4 c-59 3 -91 9 -94 18 -3 9 19 12 87 12 58 0 91 4 91 11 0 6 -31
9 -87 8 -70 -2 -88 1 -88 12 0 11 22 15 90 19 l90 6 -89 4 c-59 3 -91 9 -94
18 -3 9 22 12 100 14 l103 2 -100 5 c-80 5 -100 9 -100 21 0 12 21 16 105 21
l105 5 -107 2 c-89 2 -108 5 -108 17 0 12 19 15 103 17 l102 2 -98 5 c-53 3
-97 9 -97 14 0 4 0 11 0 15 0 5 46 8 102 8 l102 -1 12 -40 c7 -22 13 -32 13
-21 1 12 6 16 16 12 11 -4 17 3 21 23 3 15 12 28 19 28 10 0 13 -20 12 -77 0
-42 3 -82 7 -88 4 -6 9 -59 11 -118 3 -59 7 -110 10 -112 3 -3 5 4 5 16 0 11
8 23 18 25 16 4 16 5 0 6 -31 2 -20 20 15 24 l32 4 -32 1 c-48 3 -40 20 10 25
l42 4 -42 1 -43 2 0 75 0 74 103 4 102 3 -102 2 c-58 1 -103 6 -103 12 0 5 46
11 103 13 l102 3 -102 2 c-58 1 -103 6 -103 12 0 5 46 11 103 13 l102 3 -101
2 -101 2 -1 42 c-2 49 1 44 -39 52 -31 7 -32 6 -35 -31 -2 -21 -4 4 -4 54 l-1
92 141 4 141 3 -143 2 c-134 2 -144 1 -149 -17z m-16 -163 c-3 -8 -6 -5 -6 6
-1 11 2 17 5 13 3 -3 4 -12 1 -19z m-949 -535 l3 -53 -43 -2 -43 -1 43 -4 c61
-6 55 -28 -7 -28 -54 0 -74 11 -51 25 10 7 11 10 3 10 -9 0 -13 17 -13 54 l0
53 53 -1 52 -1 3 -52z m160 0 l3 -53 -54 0 c-29 0 -56 2 -58 4 -2 2 -2 27 -1
55 l4 51 51 -3 52 -2 3 -52z m157 -16 c0 -37 -4 -68 -10 -69 -34 -5 -72 -6
-87 -2 -28 8 -21 24 10 25 l27 2 -27 4 c-26 4 -28 8 -28 52 0 26 2 50 5 53 3
3 29 5 57 4 l52 -1 1 -68z m375 13 c0 -19 -7 -20 -177 -20 -106 0 -172 4 -164
9 7 5 10 14 7 20 -5 8 41 11 163 11 164 0 171 -1 171 -20z m-530 -70 c0 -5 -7
-11 -15 -11 -60 -5 -89 -2 -92 9 -4 9 11 12 51 12 31 0 56 -4 56 -10z m214
-25 c-4 -8 -7 -15 -9 -15 -2 0 -5 7 -9 15 -3 9 0 15 9 15 9 0 12 -6 9 -15z
m36 11 c0 -3 -4 -8 -10 -11 -5 -3 -10 -1 -10 4 0 6 5 11 10 11 6 0 10 -2 10
-4z m-237 -53 c-13 -2 -23 -9 -23 -14 0 -6 9 -7 20 -4 11 4 20 2 20 -4 0 -7
-27 -11 -70 -11 -56 0 -70 3 -70 15 0 8 -5 15 -11 15 -6 0 -9 -7 -5 -15 3 -9
0 -15 -8 -15 -9 0 -12 7 -9 20 5 18 13 20 92 19 47 -1 76 -4 64 -6z m203 -13
c0 -11 -6 -20 -13 -20 -7 0 -10 7 -7 15 4 8 1 15 -5 15 -6 0 -11 -7 -11 -15 0
-12 -14 -15 -70 -15 -52 0 -70 3 -70 13 0 24 12 27 95 27 74 0 81 -2 81 -20z
m4621 -2 c-3 -8 -6 -5 -6 6 -1 11 2 17 5 13 3 -3 4 -12 1 -19z m-4873 -43 c-4
-8 -1 -15 5 -15 6 0 11 7 11 15 0 9 9 15 25 15 38 0 35 -40 -2 -41 l-28 -1 30
-7 c45 -10 15 -23 -53 -23 -39 0 -49 -3 -32 -7 24 -7 24 -8 -6 -12 -39 -6 -59
1 -59 21 0 10 14 17 45 20 32 4 46 10 48 23 2 9 -1 17 -7 17 -6 0 -11 -7 -11
-15 0 -11 -11 -15 -38 -15 -31 0 -38 4 -38 20 0 18 7 20 58 20 47 0 56 -3 52
-15z m190 0 c-4 -8 -1 -15 5 -15 6 0 11 7 11 15 0 9 9 15 23 15 16 0 23 -6 23
-20 0 -16 -7 -20 -38 -20 -27 0 -38 4 -38 15 0 8 -5 15 -11 15 -6 0 -9 -7 -5
-15 4 -12 -4 -15 -39 -15 -31 0 -45 4 -45 13 0 23 11 27 66 27 43 0 52 -3 48
-15z m-58 -44 c-3 -5 -17 -8 -31 -8 -13 0 -22 3 -19 8 3 5 16 9 30 9 14 0 23
-4 20 -9z m54 -8 c0 -14 -2 -15 -9 -4 -5 7 -14 10 -20 7 -6 -4 -11 -2 -11 3 0
6 9 11 20 11 12 0 20 -7 20 -17z m5269 -30 c17 4 21 1 21 -19 0 -28 -3 -29
-25 -8 -13 14 -19 14 -28 4 -9 -10 -9 -11 3 -5 12 6 13 5 3 -6 -19 -20 -37 3
-29 36 6 25 8 26 20 10 8 -12 21 -16 35 -12z m-4151 -8 c-3 -3 -9 2 -12 12 -6
14 -5 15 5 6 7 -7 10 -15 7 -18z m3063 6 c30 -27 16 -41 -39 -39 l-47 1 43 4
c23 2 42 8 42 14 0 10 -12 12 -47 9 -13 -1 -23 1 -23 5 0 4 32 21 48 24 2 1
12 -8 23 -18z m233 -8 c-10 -40 -14 -41 -14 -5 0 18 5 32 10 32 6 0 8 -11 4
-27z m-4357 -25 c-3 -7 -5 -2 -5 12 0 14 2 19 5 13 2 -7 2 -19 0 -25z m1583
16 c0 -9 -7 -14 -17 -12 -25 5 -28 28 -4 28 12 0 21 -6 21 -16z m103 1 c5 -12
-2 -15 -38 -15 -30 0 -45 4 -45 13 0 20 76 22 83 2z m91 0 c4 -12 -3 -15 -32
-14 -23 1 -29 3 -14 6 12 2 22 9 22 14 0 15 17 10 24 -6z m36 0 c0 -8 -4 -15
-10 -15 -5 0 -10 7 -10 15 0 8 5 15 10 15 6 0 10 -7 10 -15z m1740 -1 c0 -9
-5 -14 -12 -12 -18 6 -21 28 -4 28 9 0 16 -7 16 -16z m58 4 c-6 -18 -28 -21
-28 -4 0 9 7 16 16 16 9 0 14 -5 12 -12z m76 -14 c4 -10 -3 -14 -24 -14 -32 0
-33 1 -24 23 6 18 40 11 48 -9z m36 11 c0 -8 -4 -15 -9 -15 -13 0 -22 16 -14
24 11 11 23 6 23 -9z m-4005 -5 c3 -5 1 -10 -4 -10 -6 0 -11 5 -11 10 0 6 2
10 4 10 3 0 8 -4 11 -10z m255 -12 c8 -2 -28 -5 -80 -5 -71 1 -78 1 -27 4 39
2 67 8 67 15 0 7 4 7 13 1 6 -6 19 -12 27 -15z m551 4 c-7 -2 -18 1 -23 6 -8
8 -4 9 13 5 13 -4 18 -8 10 -11z m2889 -2 c0 -5 -9 -10 -21 -10 -11 0 -17 5
-14 10 3 6 13 10 21 10 8 0 14 -4 14 -10z m-3653 -6 c-3 -3 -12 -4 -19 -1 -8
3 -5 6 6 6 11 1 17 -2 13 -5z"/>
<path d="M250 1080 c0 -13 7 -20 20 -20 13 0 20 7 20 20 0 13 -7 20 -20 20
-13 0 -20 -7 -20 -20z"/>
<path d="M300 1060 c0 -33 3 -40 20 -40 23 0 23 22 0 32 -13 5 -12 7 2 7 23 1
19 41 -4 41 -14 0 -18 -8 -18 -40z"/>
<path d="M250 1035 c0 -8 9 -15 20 -15 11 0 20 7 20 15 0 8 -9 15 -20 15 -11
0 -20 -7 -20 -15z"/>
<path d="M410 1080 c0 -25 37 -27 43 -2 4 16 5 16 6 0 1 -25 31 -23 31 2 0 17
-7 20 -40 20 -33 0 -40 -3 -40 -20z"/>
<path d="M410 1035 c0 -8 9 -15 20 -15 11 0 20 7 20 15 0 8 -9 15 -20 15 -11
0 -20 -7 -20 -15z"/>
<path d="M460 1035 c0 -8 7 -15 15 -15 8 0 15 7 15 15 0 8 -7 15 -15 15 -8 0
-15 -7 -15 -15z"/>
<path d="M570 1080 c0 -17 7 -20 40 -20 33 0 40 3 40 20 0 17 -7 20 -40 20
-33 0 -40 -3 -40 -20z"/>
<path d="M570 1035 c0 -11 11 -15 40 -15 29 0 40 4 40 15 0 11 -11 15 -40 15
-29 0 -40 -4 -40 -15z"/>
<path d="M618 1003 c6 -2 18 -2 25 0 6 3 1 5 -13 5 -14 0 -19 -2 -12 -5z"/>
<path d="M720 1060 c0 -5 11 -10 25 -10 14 0 25 5 25 10 0 6 -11 10 -25 10
-14 0 -25 -4 -25 -10z"/>
<path d="M790 1060 c0 -5 12 -10 26 -10 14 0 23 4 19 10 -3 6 -15 10 -26 10
-10 0 -19 -4 -19 -10z"/>
<path d="M850 1060 c0 -5 11 -10 25 -10 14 0 25 5 25 10 0 6 -11 10 -25 10
-14 0 -25 -4 -25 -10z"/>
<path d="M910 1060 c0 -5 11 -10 25 -10 14 0 25 5 25 10 0 6 -11 10 -25 10
-14 0 -25 -4 -25 -10z"/>
<path d="M975 1060 c3 -5 15 -10 26 -10 10 0 19 5 19 10 0 6 -12 10 -26 10
-14 0 -23 -4 -19 -10z"/>
<path d="M410 910 c0 -5 5 -10 10 -10 6 0 10 5 10 10 0 6 -4 10 -10 10 -5 0
-10 -4 -10 -10z"/>
<path d="M440 910 c0 -5 5 -10 10 -10 6 0 10 5 10 10 0 6 -4 10 -10 10 -5 0
-10 -4 -10 -10z"/>
<path d="M470 910 c0 -5 5 -10 10 -10 6 0 10 5 10 10 0 6 -4 10 -10 10 -5 0
-10 -4 -10 -10z"/>
<path d="M565 910 c3 -5 10 -10 16 -10 5 0 9 5 9 10 0 6 -7 10 -16 10 -8 0
-12 -4 -9 -10z"/>
<path d="M600 910 c0 -5 5 -10 10 -10 6 0 10 5 10 10 0 6 -4 10 -10 10 -5 0
-10 -4 -10 -10z"/>
<path d="M630 910 c0 -5 5 -10 10 -10 6 0 10 5 10 10 0 6 -4 10 -10 10 -5 0
-10 -4 -10 -10z"/>
<path d="M660 910 c0 -5 5 -10 10 -10 6 0 10 5 10 10 0 6 -4 10 -10 10 -5 0
-10 -4 -10 -10z"/>
<path d="M380 860 c0 -5 5 -10 10 -10 6 0 10 5 10 10 0 6 -4 10 -10 10 -5 0
-10 -4 -10 -10z"/>
<path d="M410 860 c0 -5 5 -10 10 -10 6 0 10 5 10 10 0 6 -4 10 -10 10 -5 0
-10 -4 -10 -10z"/>
<path d="M500 860 c0 -5 5 -10 10 -10 6 0 10 5 10 10 0 6 -4 10 -10 10 -5 0
-10 -4 -10 -10z"/>
<path d="M380 809 c0 -5 5 -7 10 -4 6 3 10 8 10 11 0 2 -4 4 -10 4 -5 0 -10
-5 -10 -11z"/>
<path d="M600 860 c0 -5 5 -10 10 -10 6 0 10 5 10 10 0 6 -4 10 -10 10 -5 0
-10 -4 -10 -10z"/>
<path d="M690 860 c0 -5 5 -10 10 -10 6 0 10 5 10 10 0 6 -4 10 -10 10 -5 0
-10 -4 -10 -10z"/>
<path d="M4489 1763 c-13 -16 -12 -17 4 -4 16 13 21 21 13 21 -2 0 -10 -8 -17
-17z"/>
<path d="M4568 1762 c9 -10 19 -17 21 -16 6 5 -20 34 -30 34 -5 0 -1 -8 9 -18z"/>
<path d="M3221 1754 c0 -11 3 -14 6 -6 3 7 2 16 -1 19 -3 4 -6 -2 -5 -13z"/>
<path d="M3251 1754 c0 -11 3 -14 6 -6 3 7 2 16 -1 19 -3 4 -6 -2 -5 -13z"/>
<path d="M5240 1760 c0 -6 43 -10 110 -10 67 0 110 4 110 10 0 6 -43 10 -110
10 -67 0 -110 -4 -110 -10z"/>
<path d="M2910 1750 c0 -5 23 -10 50 -10 28 0 50 5 50 10 0 6 -22 10 -50 10
-27 0 -50 -4 -50 -10z"/>
<path d="M3192 1740 c0 -14 2 -19 5 -12 2 6 2 18 0 25 -3 6 -5 1 -5 -13z"/>
<path d="M1392 1743 c37 -2 100 -2 140 0 40 1 10 3 -67 3 -77 0 -110 -1 -73
-3z"/>
<path d="M2482 1723 c37 -2 100 -2 140 0 40 1 10 3 -67 3 -77 0 -110 -1 -73
-3z"/>
<path d="M3161 1714 c0 -11 3 -14 6 -6 3 7 2 16 -1 19 -3 4 -6 -2 -5 -13z"/>
<path d="M3224 1505 c0 -126 2 -177 3 -112 2 65 2 168 0 230 -1 62 -3 9 -3
-118z"/>
<path d="M3254 1505 c0 -126 2 -177 3 -112 2 65 2 168 0 230 -1 62 -3 9 -3
-118z"/>
<path d="M3371 1714 c0 -11 3 -14 6 -6 3 7 2 16 -1 19 -3 4 -6 -2 -5 -13z"/>
<path d="M4956 1706 c-3 -13 -9 -31 -12 -40 -5 -13 1 -16 26 -16 27 0 30 3 26
20 -3 11 -9 29 -12 40 -7 27 -21 25 -28 -4z"/>
<path d="M5240 1720 c0 -6 43 -10 110 -10 67 0 110 4 110 10 0 6 -43 10 -110
10 -67 0 -110 -4 -110 -10z"/>
<path d="M1338 1713 c7 -3 16 -2 19 1 4 3 -2 6 -13 5 -11 0 -14 -3 -6 -6z"/>
<path d="M1388 1713 c6 -2 18 -2 25 0 6 3 1 5 -13 5 -14 0 -19 -2 -12 -5z"/>
<path d="M1438 1713 c6 -2 18 -2 25 0 6 3 1 5 -13 5 -14 0 -19 -2 -12 -5z"/>
<path d="M1518 1713 c7 -3 16 -2 19 1 4 3 -2 6 -13 5 -11 0 -14 -3 -6 -6z"/>
<path d="M2735 1699 c7 -40 44 -117 44 -94 0 11 -11 43 -25 70 -14 30 -22 40
-19 24z"/>
<path d="M5655 1708 c-2 -7 -13 -131 -25 -275 -19 -247 -24 -361 -13 -320 7
29 23 19 24 -15 2 -31 2 -31 6 -5 2 15 9 27 14 27 5 0 10 -12 10 -27 2 -24 2
-25 6 -5 2 12 9 22 14 22 5 0 10 -10 10 -22 1 -17 2 -19 6 -5 2 9 9 17 14 17
5 0 9 -8 10 -17 0 -12 2 -13 6 -5 4 10 8 10 20 1 17 -15 16 24 -16 376 -11
127 -21 238 -21 248 0 12 -8 17 -30 17 -17 0 -33 -6 -35 -12z m55 -38 c0 -11
-4 -20 -10 -20 -5 0 -10 9 -10 20 0 11 5 20 10 20 6 0 10 -9 10 -20z m-30
-210 c0 -11 -7 -20 -15 -20 -8 0 -15 9 -15 20 0 11 7 20 15 20 8 0 15 -9 15
-20z m57 -154 c-4 -9 -11 -16 -17 -16 -11 0 -14 33 -3 44 11 10 26 -11 20 -28z
m-77 -156 c0 -11 -4 -20 -10 -20 -5 0 -10 9 -10 20 0 11 5 20 10 20 6 0 10 -9
10 -20z"/>
<path d="M3193 1660 c0 -30 2 -43 4 -27 2 15 2 39 0 55 -2 15 -4 2 -4 -28z"/>
<path d="M3415 1677 c-4 -19 -5 -45 -2 -58 3 -16 5 -11 6 15 1 34 4 38 22 33
16 -4 20 -1 17 16 -2 12 -11 23 -20 25 -12 2 -19 -6 -23 -31z"/>
<path d="M3487 1704 c-4 -4 -7 -19 -7 -33 0 -19 3 -22 9 -12 5 8 16 11 26 8
13 -5 16 -2 13 15 -3 23 -27 35 -41 22z"/>
<path d="M3557 1704 c-11 -11 -8 -62 4 -70 8 -4 9 0 4 15 -4 15 -2 21 8 21 9
0 18 -6 21 -12 3 -7 4 0 3 17 -2 29 -24 45 -40 29z"/>
<path d="M3627 1703 c-15 -14 -6 -31 19 -36 19 -3 24 -1 20 10 -3 8 -6 19 -6
24 0 10 -23 12 -33 2z"/>
<path d="M3770 1700 c0 -13 -11 -12 195 -14 183 -2 205 -1 205 15 0 5 -89 9
-200 9 -127 0 -200 -4 -200 -10z"/>
<path d="M4568 1688 c-10 -10 -14 -18 -9 -18 10 0 36 29 30 34 -2 1 -12 -6
-21 -16z"/>
<path d="M2540 1675 c0 -23 3 -25 50 -25 47 0 50 2 50 25 0 23 -3 25 -50 25
-47 0 -50 -2 -50 -25z"/>
<path d="M2650 1675 c0 -16 6 -25 15 -25 9 0 15 9 15 25 0 16 -6 25 -15 25 -9
0 -15 -9 -15 -25z"/>
<path d="M2692 1675 c0 -16 2 -22 5 -12 2 9 2 23 0 30 -3 6 -5 -1 -5 -18z"/>
<path d="M3162 1665 c0 -16 2 -22 5 -12 2 9 2 23 0 30 -3 6 -5 -1 -5 -18z"/>
<path d="M3373 1650 c0 -25 2 -35 4 -22 2 12 2 32 0 45 -2 12 -4 2 -4 -23z"/>
<path d="M5240 1680 c0 -6 43 -10 110 -10 67 0 110 4 110 10 0 6 -43 10 -110
10 -67 0 -110 -4 -110 -10z"/>
<path d="M2090 1659 c0 -5 5 -7 10 -4 6 3 10 8 10 11 0 2 -4 4 -10 4 -5 0 -10
-5 -10 -11z"/>
<path d="M5240 1640 c0 -6 43 -10 110 -10 67 0 110 4 110 10 0 6 -43 10 -110
10 -67 0 -110 -4 -110 -10z"/>
<path d="M4296 1628 c-3 -7 -7 -25 -10 -40 -4 -16 -13 -28 -21 -28 -12 0 -15
-17 -15 -85 0 -50 -4 -85 -10 -85 -5 0 -10 -13 -10 -30 0 -29 -1 -29 -61 -32
l-62 -3 -29 -52 c-29 -51 -29 -53 -9 -53 14 0 21 6 21 20 0 11 3 20 8 20 4 0
13 -9 20 -20 7 -11 23 -20 36 -20 21 0 25 6 28 33 2 24 8 32 23 32 16 0 21 -8
23 -37 2 -26 -1 -38 -10 -38 -9 0 -9 -3 2 -10 11 -7 4 -10 -26 -10 -29 0 -44
-5 -48 -16 -9 -23 -7 -34 4 -34 6 0 10 9 10 21 0 14 5 19 18 17 12 -2 18 -15
20 -46 3 -39 2 -42 -23 -42 -15 0 -24 4 -20 10 3 6 2 10 -4 10 -5 0 -12 -6
-15 -12 -3 -7 -5 10 -4 37 l2 50 -44 0 -45 0 -2 -53 c-1 -31 2 -50 8 -46 5 3
7 9 4 14 -3 5 -1 11 4 15 7 4 7 15 1 31 -7 17 -7 23 0 19 6 -3 10 -1 10 5 0 6
10 10 23 8 18 -2 23 -10 25 -47 3 -36 1 -43 -12 -38 -8 3 -18 2 -21 -3 -4 -6
-1 -10 4 -10 6 0 11 -13 11 -30 0 -29 -1 -30 -50 -30 -33 0 -50 4 -50 13 0 8
-3 9 -8 1 -12 -18 -101 -17 -108 1 -4 8 -11 15 -16 15 -6 0 -5 -6 2 -15 11
-13 5 -15 -48 -15 -39 0 -62 4 -65 13 -4 9 -6 9 -6 0 -1 -8 -15 -13 -37 -13
-27 0 -35 -4 -31 -14 4 -9 -1 -17 -11 -19 -16 -4 -15 -5 1 -6 13 -1 17 -10 16
-43 0 -31 -3 -38 -8 -23 -7 17 -8 17 -13 -8 -4 -19 -1 -27 8 -27 20 0 17 -18
-3 -23 -17 -4 -17 -5 0 -6 11 -1 17 -9 17 -27 0 -16 5 -24 13 -22 8 3 13 34
15 96 1 51 6 92 10 93 4 0 19 2 35 4 l27 4 0 -100 c0 -96 1 -99 23 -98 12 1
15 3 7 5 -12 4 -14 22 -12 99 l3 95 27 0 c46 0 54 -12 52 -76 -2 -87 3 -90 9
-4 l6 75 35 0 35 -1 5 -69 4 -70 6 70 c5 70 5 70 35 70 l30 0 5 -97 c4 -70 8
-95 17 -90 6 4 13 21 15 37 l3 30 114 3 c85 2 117 -1 123 -10 6 -10 8 -10 8 0
0 6 11 12 24 12 24 0 25 1 28 103 2 56 1 123 -2 148 -4 39 -7 45 -18 33 -7 -8
-8 -14 -2 -14 17 0 13 -137 -5 -143 -8 -4 -16 -3 -18 1 -2 4 -3 88 -3 187 1
163 3 180 19 183 13 3 17 -4 17 -31 0 -20 -6 -38 -12 -40 -10 -4 -10 -6 0 -6
8 -1 12 -18 12 -50 0 -30 -5 -51 -12 -54 -7 -3 -4 -6 7 -6 19 -1 20 5 19 95 0
106 -5 113 -60 107 l-34 -3 0 80 0 80 38 1 c20 1 30 3 21 6 -10 2 -19 19 -23
44 -6 38 -32 55 -40 27z m-6 -158 c0 -60 -3 -80 -13 -80 -11 0 -14 20 -14 80
-1 62 2 80 13 80 11 0 14 -18 14 -80z m-10 -125 c0 -28 -4 -35 -19 -35 -15 0
-19 7 -19 35 0 28 4 35 19 35 15 0 19 -7 19 -35z m50 -55 c0 -65 -3 -90 -12
-91 -10 0 -10 -2 0 -6 6 -2 12 -11 12 -19 0 -8 -6 -14 -12 -15 -10 0 -10 -2 0
-6 8 -3 12 -31 12 -89 0 -75 -2 -84 -18 -84 -18 0 -19 12 -19 193 0 105 2 195
4 200 2 4 11 7 19 7 11 0 14 -18 14 -90z m-50 -160 c0 -93 -2 -170 -4 -170 -2
0 -11 -2 -18 -5 -12 -5 -15 23 -15 170 -1 165 0 175 18 175 18 0 19 -10 19
-170z m-51 -70 c2 -113 1 -120 -18 -120 -11 0 -22 -6 -24 -12 -3 -7 -6 24 -6
70 -1 67 2 82 14 82 11 0 15 12 15 50 0 28 4 50 9 50 5 0 10 -54 10 -120z
m-59 5 c0 -9 -10 -16 -27 -16 l-28 -2 28 -4 c26 -4 27 -6 27 -68 0 -61 -1 -63
-30 -74 l-30 -10 0 95 0 94 30 0 c20 0 30 -5 30 -15z"/>
<path d="M4138 1003 c7 -3 16 -2 19 1 4 3 -2 6 -13 5 -11 0 -14 -3 -6 -6z"/>
<path d="M4128 933 c6 -2 18 -2 25 0 6 3 1 5 -13 5 -14 0 -19 -2 -12 -5z"/>
<path d="M2528 1623 c28 -2 76 -2 105 0 28 2 5 3 -53 3 -58 0 -81 -1 -52 -3z"/>
<path d="M3772 1618 c4 -10 55 -14 201 -16 171 -2 197 0 197 13 0 13 -28 15
-201 15 -156 0 -200 -3 -197 -12z"/>
<path d="M2062 1590 c0 -19 2 -27 5 -17 2 9 2 25 0 35 -3 9 -5 1 -5 -18z"/>
<path d="M2088 1585 c-3 -27 -1 -32 9 -23 15 12 18 58 4 58 -5 0 -11 -16 -13
-35z"/>
<path d="M2120 1597 c0 -13 5 -28 12 -35 8 -8 8 -15 -2 -27 -7 -8 -10 -18 -6
-22 14 -14 21 14 18 75 -2 36 -22 45 -22 9z"/>
<path d="M2731 1610 c0 -8 11 -37 24 -65 13 -27 23 -43 24 -35 0 8 -11 38 -24
65 -13 28 -23 43 -24 35z"/>
<path d="M3442 1600 c0 -14 2 -19 5 -12 2 6 2 18 0 25 -3 6 -5 1 -5 -13z"/>
<path d="M3481 1594 c0 -11 3 -14 6 -6 3 7 2 16 -1 19 -3 4 -6 -2 -5 -13z"/>
<path d="M4928 1603 c6 -2 18 -2 25 0 6 3 1 5 -13 5 -14 0 -19 -2 -12 -5z"/>
<path d="M4993 1603 c9 -2 25 -2 35 0 9 3 1 5 -18 5 -19 0 -27 -2 -17 -5z"/>
<path d="M5245 1601 c-10 -16 7 -19 109 -17 69 1 101 5 103 14 4 9 -21 12
-101 12 -57 0 -107 -4 -111 -9z"/>
<path d="M2482 1575 c0 -16 2 -22 5 -12 2 9 2 23 0 30 -3 6 -5 -1 -5 -18z"/>
<path d="M2500 1574 c0 -31 23 -28 28 4 2 15 -2 22 -12 22 -11 0 -16 -9 -16
-26z"/>
<path d="M2540 1577 c0 -21 4 -23 50 -23 46 0 50 2 50 23 0 21 -4 23 -50 23
-46 0 -50 -2 -50 -23z"/>
<path d="M2650 1575 c0 -16 6 -25 15 -25 9 0 15 9 15 25 0 16 -6 25 -15 25 -9
0 -15 -9 -15 -25z"/>
<path d="M2692 1575 c0 -16 2 -22 5 -12 2 9 2 23 0 30 -3 6 -5 -1 -5 -18z"/>
<path d="M1438 1583 c12 -2 30 -2 40 0 9 3 -1 5 -23 4 -22 0 -30 -2 -17 -4z"/>
<path d="M1523 1583 c15 -2 39 -2 55 0 15 2 2 4 -28 4 -30 0 -43 -2 -27 -4z"/>
<path d="M3568 1583 c7 -3 16 -2 19 1 4 3 -2 6 -13 5 -11 0 -14 -3 -6 -6z"/>
<path d="M4928 1583 c7 -3 16 -2 19 1 4 3 -2 6 -13 5 -11 0 -14 -3 -6 -6z"/>
<path d="M4993 1583 c9 -2 25 -2 35 0 9 3 1 5 -18 5 -19 0 -27 -2 -17 -5z"/>
<path d="M3194 1435 c0 -77 2 -107 3 -67 2 40 2 103 0 140 -2 37 -3 4 -3 -73z"/>
<path d="M4928 1563 c6 -2 18 -2 25 0 6 3 1 5 -13 5 -14 0 -19 -2 -12 -5z"/>
<path d="M4993 1563 c9 -2 25 -2 35 0 9 3 1 5 -18 5 -19 0 -27 -2 -17 -5z"/>
<path d="M5244 1561 c-14 -14 21 -21 112 -21 71 0 104 4 102 11 -3 10 -204 19
-214 10z"/>
<path d="M3416 1545 c4 -8 12 -15 19 -15 7 0 15 7 19 15 4 11 -1 15 -19 15
-18 0 -23 -4 -19 -15z"/>
<path d="M3486 1545 c4 -8 12 -15 19 -15 7 0 15 7 19 15 4 11 -1 15 -19 15
-18 0 -23 -4 -19 -15z"/>
<path d="M3556 1545 c4 -8 12 -15 19 -15 7 0 15 7 19 15 4 11 -1 15 -19 15
-18 0 -23 -4 -19 -15z"/>
<path d="M3622 1548 c7 -19 35 -21 41 -3 5 11 0 15 -19 15 -16 0 -24 -5 -22
-12z"/>
<path d="M3770 1535 c0 -13 29 -15 200 -15 171 0 200 2 200 15 0 13 -29 15
-200 15 -171 0 -200 -2 -200 -15z"/>
<path d="M2061 1524 c0 -11 3 -14 6 -6 3 7 2 16 -1 19 -3 4 -6 -2 -5 -13z"/>
<path d="M2090 1526 c0 -9 5 -16 10 -16 6 0 10 4 10 9 0 6 -4 13 -10 16 -5 3
-10 -1 -10 -9z"/>
<path d="M2731 1515 c0 -24 47 -127 48 -105 0 8 -11 40 -24 70 -13 30 -24 46
-24 35z"/>
<path d="M3377 1513 c-7 -15 -9 -82 -2 -93 10 -17 54 22 55 49 0 19 4 23 25
19 16 -3 30 1 41 13 17 18 15 19 -49 19 -36 0 -68 -3 -70 -7z"/>
<path d="M3584 1501 c11 -12 25 -16 43 -13 24 4 25 3 21 -25 -2 -17 1 -30 6
-30 6 0 19 -4 29 -8 15 -6 17 -1 17 44 l0 51 -67 0 c-64 0 -66 -1 -49 -19z"/>
<path d="M4870 1505 c-10 -12 -9 -15 8 -15 11 0 22 7 26 15 3 9 0 15 -8 15 -7
0 -19 -7 -26 -15z"/>
<path d="M4920 1505 c0 -11 12 -15 50 -15 38 0 50 4 50 15 0 11 -12 15 -50 15
-38 0 -50 -4 -50 -15z"/>
<path d="M5043 1503 c9 -9 19 -14 23 -11 10 10 -6 28 -24 28 -15 0 -15 -1 1
-17z"/>
<path d="M5240 1510 c0 -6 43 -10 110 -10 67 0 110 4 110 10 0 6 -43 10 -110
10 -67 0 -110 -4 -110 -10z"/>
<path d="M2482 1485 c0 -16 2 -22 5 -12 2 9 2 23 0 30 -3 6 -5 -1 -5 -18z"/>
<path d="M2500 1485 c0 -16 6 -25 15 -25 9 0 15 9 15 25 0 16 -6 25 -15 25 -9
0 -15 -9 -15 -25z"/>
<path d="M2540 1484 c0 -22 4 -24 50 -24 46 0 50 2 50 24 0 21 -4 23 -50 23
-46 0 -50 -2 -50 -23z"/>
<path d="M2650 1485 c0 -16 6 -25 15 -25 9 0 15 9 15 25 0 16 -6 25 -15 25 -9
0 -15 -9 -15 -25z"/>
<path d="M2692 1485 c0 -16 2 -22 5 -12 2 9 2 23 0 30 -3 6 -5 -1 -5 -18z"/>
<path d="M3485 1454 c-49 -43 -73 -56 -59 -31 4 6 3 8 -1 4 -5 -4 -10 -14 -11
-22 -2 -13 19 -15 126 -15 117 0 128 2 125 18 -1 9 -8 16 -14 14 -7 -1 -31 13
-54 31 -23 19 -46 36 -52 39 -5 4 -32 -14 -60 -38z"/>
<path d="M1288 1470 c-7 -24 -3 -38 8 -28 3 4 4 17 2 30 l-3 23 -7 -25z"/>
<path d="M2062 1455 c0 -16 2 -22 5 -12 2 9 2 23 0 30 -3 6 -5 -1 -5 -18z"/>
<path d="M2090 1455 c0 -14 5 -25 10 -25 6 0 10 11 10 25 0 14 -4 25 -10 25
-5 0 -10 -11 -10 -25z"/>
<path d="M2120 1455 c0 -14 5 -25 10 -25 6 0 10 11 10 25 0 14 -4 25 -10 25
-5 0 -10 -11 -10 -25z"/>
<path d="M3440 1469 c0 -5 5 -7 10 -4 6 3 10 8 10 11 0 2 -4 4 -10 4 -5 0 -10
-5 -10 -11z"/>
<path d="M3625 1470 c3 -5 8 -10 11 -10 2 0 4 5 4 10 0 6 -5 10 -11 10 -5 0
-7 -4 -4 -10z"/>
<path d="M5240 1470 c0 -6 43 -10 110 -10 67 0 110 4 110 10 0 6 -43 10 -110
10 -67 0 -110 -4 -110 -10z"/>
<path d="M423 1463 c15 -2 37 -2 50 0 12 2 0 4 -28 4 -27 0 -38 -2 -22 -4z"/>
<path d="M3775 1462 c-18 -18 16 -22 195 -22 168 0 200 2 200 15 0 12 -31 14
-195 13 -107 -1 -197 -3 -200 -6z"/>
<path d="M4817 1450 c-16 -19 -16 -20 11 -20 16 0 32 8 40 20 11 18 10 20 -11
20 -12 0 -30 -9 -40 -20z"/>
<path d="M4896 1454 c-3 -9 -6 -18 -6 -20 0 -2 36 -4 81 -4 70 0 80 2 75 16
-3 9 -6 18 -6 20 0 2 -31 4 -69 4 -54 0 -70 -4 -75 -16z"/>
<path d="M5072 1450 c7 -11 23 -20 36 -20 20 0 21 3 12 20 -6 12 -21 20 -35
20 -23 0 -24 -2 -13 -20z"/>
<path d="M1310 1456 c0 -2 7 -6 15 -10 8 -3 15 -1 15 4 0 6 -7 10 -15 10 -8 0
-15 -2 -15 -4z"/>
<path d="M1547 1445 c-7 -16 8 -29 23 -20 10 6 2 35 -10 35 -4 0 -10 -7 -13
-15z"/>
<path d="M3343 1385 c0 -44 2 -61 4 -37 2 23 2 59 0 80 -2 20 -4 1 -4 -43z"/>
<path d="M1262 1420 c0 -19 2 -27 5 -17 2 9 2 25 0 35 -3 9 -5 1 -5 -18z"/>
<path d="M2528 1433 c28 -2 76 -2 105 0 28 2 5 3 -53 3 -58 0 -81 -1 -52 -3z"/>
<path d="M5240 1430 c0 -6 43 -10 110 -10 67 0 110 4 110 10 0 6 -43 10 -110
10 -67 0 -110 -4 -110 -10z"/>
<path d="M2731 1415 c0 -11 8 -36 19 -55 24 -45 24 -18 0 35 -12 26 -19 33
-19 20z"/>
<path d="M3900 1416 c0 -9 5 -16 10 -16 6 0 10 4 10 9 0 6 -4 13 -10 16 -5 3
-10 -1 -10 -9z"/>
<path d="M2482 1385 c0 -16 2 -22 5 -12 2 9 2 23 0 30 -3 6 -5 -1 -5 -18z"/>
<path d="M2500 1385 c0 -16 6 -25 15 -25 9 0 15 9 15 25 0 16 -6 25 -15 25 -9
0 -15 -9 -15 -25z"/>
<path d="M2540 1385 c0 -23 3 -25 50 -25 47 0 50 2 50 25 0 23 -3 25 -50 25
-47 0 -50 -2 -50 -25z"/>
<path d="M2650 1385 c0 -16 6 -25 15 -25 9 0 15 9 15 25 0 16 -6 25 -15 25 -9
0 -15 -9 -15 -25z"/>
<path d="M2692 1385 c0 -16 2 -22 5 -12 2 9 2 23 0 30 -3 6 -5 -1 -5 -18z"/>
<path d="M4759 1390 l-24 -19 40 -1 c30 0 43 5 53 20 11 18 10 20 -17 20 -16
0 -39 -9 -52 -20z"/>
<path d="M4860 1390 c-10 -19 -8 -20 110 -20 118 0 120 1 110 20 -10 18 -21
20 -110 20 -89 0 -100 -2 -110 -20z"/>
<path d="M403 1393 c32 -2 81 -2 110 0 29 2 3 3 -58 3 -60 0 -84 -1 -52 -3z"/>
<path d="M1281 1190 c0 -113 -1 -207 -2 -210 -8 -43 -8 -50 1 -45 5 3 10 12
10 20 0 7 8 12 18 11 14 -2 18 -16 23 -72 l5 -69 2 81 c2 79 1 81 -20 80 -22
-1 -23 3 -26 83 -3 90 5 112 32 86 15 -15 16 -15 16 4 0 16 -6 21 -25 21 -25
0 -25 1 -25 89 0 50 4 92 8 95 11 6 28 -5 35 -24 3 -8 6 1 6 21 1 34 -1 36
-29 35 l-29 -1 0 -205z"/>
<path d="M2090 1390 c0 -5 5 -10 11 -10 5 0 7 5 4 10 -3 6 -8 10 -11 10 -2 0
-4 -4 -4 -10z"/>
<path d="M2120 1390 c0 -5 5 -10 10 -10 6 0 10 5 10 10 0 6 -4 10 -10 10 -5 0
-10 -4 -10 -10z"/>
<path d="M5242 1389 c5 -15 211 -15 216 0 2 7 -34 11 -108 11 -79 0 -111 -3
-108 -11z"/>
<path d="M3787 1382 c-9 -2 -17 -8 -17 -13 0 -5 84 -9 200 -9 127 0 200 4 200
10 0 6 -3 10 -7 11 -30 2 -363 3 -376 1z"/>
<path d="M1474 1289 c-43 -50 -81 -99 -85 -108 -4 -13 -4 -122 0 -153 3 -21
21 -4 22 20 l1 27 7 -26 6 -26 139 0 138 0 -6 50 c-4 27 -13 63 -19 79 l-12
30 -1 -43 c-1 -35 -8 -48 -33 -71 -37 -33 -93 -38 -130 -12 -29 21 -54 79 -45
107 3 12 3 19 -1 15 -3 -3 -13 -28 -21 -55 -12 -43 -13 -44 -8 -9 12 85 93
216 133 216 48 0 124 -131 144 -246 6 -35 15 -64 19 -64 4 0 8 39 8 86 l0 86
-81 94 c-45 52 -85 94 -88 94 -4 0 -43 -41 -87 -91z"/>
<path d="M3498 1373 c7 -3 16 -2 19 1 4 3 -2 6 -13 5 -11 0 -14 -3 -6 -6z"/>
<path d="M1362 1350 c0 -14 2 -19 5 -12 2 6 2 18 0 25 -3 6 -5 1 -5 -13z"/>
<path d="M3390 1316 l0 -46 -185 0 -186 0 12 -22 c7 -13 17 -26 23 -30 7 -5 3
-8 -9 -9 l-20 0 20 -9 c29 -12 312 -12 320 0 3 6 2 10 -3 10 -6 0 -5 10 1 25
15 31 26 32 29 3 1 -13 4 6 7 42 5 56 9 65 27 68 15 2 23 -3 27 -17 7 -28 29
-27 25 2 -2 18 -10 23 -45 25 l-43 3 0 -45z m-268 -91 c4 -21 1 -25 -17 -25
-17 0 -21 5 -19 23 3 29 2 27 18 27 7 0 16 -11 18 -25z m70 0 c4 -21 1 -25
-18 -25 -22 0 -26 11 -15 48 1 1 7 2 15 2 7 0 16 -11 18 -25z m68 0 c0 -18 -5
-25 -20 -25 -18 0 -21 13 -11 48 1 1 8 2 16 2 9 0 15 -9 15 -25z m70 0 c0 -18
-5 -25 -20 -25 -20 0 -28 28 -13 43 15 16 33 6 33 -18z"/>
<path d="M3505 1353 c11 -3 23 -10 28 -17 5 -8 10 -7 16 3 5 8 16 11 25 8 9
-4 16 -2 16 3 0 6 -24 9 -52 9 -29 -1 -44 -4 -33 -6z"/>
<path d="M3605 1348 c-10 -29 0 -118 13 -118 5 0 5 24 2 54 -3 30 -2 52 2 50
4 -3 8 0 8 6 0 6 10 10 23 8 19 -3 23 -10 28 -68 5 -62 12 -43 10 30 0 29 1
31 8 15 7 -14 10 -16 10 -4 1 8 -4 20 -11 27 -16 16 -87 16 -93 0z"/>
<path d="M4711 1341 c-16 -30 -15 -31 33 -31 35 0 45 4 49 20 4 16 0 20 -18
20 -13 0 -30 3 -38 6 -9 3 -20 -3 -26 -15z"/>
<path d="M5146 1335 c9 -27 6 -27 57 -23 42 3 44 4 32 21 -8 11 -28 19 -54 20
-37 2 -40 1 -35 -18z"/>
<path d="M5243 1347 c2 -8 40 -13 111 -15 84 -2 107 0 104 10 -3 9 -35 13
-112 15 -78 1 -106 -2 -103 -10z"/>
<path d="M1752 1325 c0 -16 2 -22 5 -12 2 9 2 23 0 30 -3 6 -5 -1 -5 -18z"/>
<path d="M1862 1325 c0 -16 2 -22 5 -12 2 9 2 23 0 30 -3 6 -5 -1 -5 -18z"/>
<path d="M2062 1320 c0 -19 2 -27 5 -17 2 9 2 25 0 35 -3 9 -5 1 -5 -18z"/>
<path d="M2090 1319 c0 -17 4 -28 10 -24 6 3 10 17 10 31 0 13 -4 24 -10 24
-5 0 -10 -14 -10 -31z"/>
<path d="M2120 1326 c0 -13 -3 -33 -6 -43 -5 -15 -4 -15 5 -3 5 8 13 11 17 7
4 -3 1 -13 -6 -22 -7 -9 -10 -18 -6 -22 14 -14 21 14 18 75 -2 37 -22 44 -22
8z"/>
<path d="M4836 1334 c-3 -9 -6 -18 -6 -20 0 -2 63 -4 140 -4 77 0 140 2 140 4
0 2 -3 11 -6 20 -5 13 -27 16 -134 16 -107 0 -129 -3 -134 -16z"/>
<path d="M350 1332 c8 -4 60 -5 115 -2 l100 6 -115 2 c-63 1 -108 -2 -100 -6z"/>
<path d="M2533 1333 c32 -2 81 -2 110 0 29 2 3 3 -58 3 -60 0 -84 -1 -52 -3z"/>
<path d="M3415 1330 c-3 -5 1 -10 9 -10 9 0 16 5 16 10 0 6 -4 10 -9 10 -6 0
-13 -4 -16 -10z"/>
<path d="M3505 1330 c-3 -5 -1 -10 4 -10 6 0 11 5 11 10 0 6 -2 10 -4 10 -3 0
-8 -4 -11 -10z"/>
<path d="M3560 1330 c0 -5 5 -10 11 -10 5 0 7 5 4 10 -3 6 -8 10 -11 10 -2 0
-4 -4 -4 -10z"/>
<path d="M3640 1330 c0 -5 7 -10 16 -10 8 0 12 5 9 10 -3 6 -10 10 -16 10 -5
0 -9 -4 -9 -10z"/>
<path d="M2730 1318 c0 -9 5 -20 10 -23 13 -8 13 5 0 25 -8 13 -10 13 -10 -2z"/>
<path d="M2771 1308 c-54 -86 -55 -88 -32 -88 14 0 21 6 21 19 0 11 5 23 12
27 7 4 8 3 4 -4 -4 -7 -4 -17 0 -24 5 -8 10 -6 15 8 7 17 8 17 8 -3 1 -18 7
-23 26 -23 22 0 25 4 25 35 0 19 3 34 8 34 26 -4 42 3 42 21 0 18 -7 20 -58
20 -48 0 -59 -3 -71 -22z"/>
<path d="M1362 1295 c0 -16 2 -22 5 -12 2 9 2 23 0 30 -3 6 -5 -1 -5 -18z"/>
<path d="M1524 1288 c-29 -32 -64 -82 -64 -92 0 -3 11 6 24 19 29 28 66 40
102 31 14 -4 37 -18 50 -31 50 -50 15 14 -39 73 -17 17 -34 32 -37 32 -3 0
-20 -15 -36 -32z"/>
<path d="M350 1240 l0 -70 100 0 100 0 0 70 0 70 -100 0 -100 0 0 -70z m140
-5 l0 -55 -40 0 -40 0 0 55 0 55 40 0 40 0 0 -55z"/>
<path d="M420 1265 c0 -9 11 -13 30 -13 17 1 30 6 30 13 0 7 -13 12 -30 13
-19 0 -30 -4 -30 -13z"/>
<path d="M420 1230 c0 -5 14 -10 30 -10 17 0 30 5 30 10 0 6 -13 10 -30 10
-16 0 -30 -4 -30 -10z"/>
<path d="M1922 1290 c0 -14 2 -19 5 -12 2 6 2 18 0 25 -3 6 -5 1 -5 -13z"/>
<path d="M2482 1285 c0 -16 2 -22 5 -12 2 9 2 23 0 30 -3 6 -5 -1 -5 -18z"/>
<path d="M2500 1285 c0 -16 6 -25 15 -25 9 0 15 9 15 25 0 16 -6 25 -15 25 -9
0 -15 -9 -15 -25z"/>
<path d="M2540 1286 c0 -21 4 -23 50 -23 46 0 50 2 50 23 0 20 -5 24 -29 24
-16 0 -32 -6 -34 -12 -4 -10 -6 -10 -6 0 -2 23 -31 13 -31 -12z"/>
<path d="M2650 1285 c0 -16 6 -25 15 -25 9 0 15 9 15 25 0 16 -6 25 -15 25 -9
0 -15 -9 -15 -25z"/>
<path d="M2692 1285 c0 -16 2 -22 5 -12 2 9 2 23 0 30 -3 6 -5 -1 -5 -18z"/>
<path d="M3161 1294 c0 -11 3 -14 6 -6 3 7 2 16 -1 19 -3 4 -6 -2 -5 -13z"/>
<path d="M3420 1295 c0 -8 4 -15 10 -15 5 0 7 7 4 15 -4 8 -8 15 -10 15 -2 0
-4 -7 -4 -15z"/>
<path d="M3511 1294 c0 -11 3 -14 6 -6 3 7 2 16 -1 19 -3 4 -6 -2 -5 -13z"/>
<path d="M3563 1275 c0 -22 2 -30 4 -17 2 12 2 30 0 40 -3 9 -5 -1 -4 -23z"/>
<path d="M3648 1280 c-3 -17 -1 -33 4 -36 4 -3 8 11 8 30 0 44 -6 47 -12 6z"/>
<path d="M3808 1302 c-21 -2 -38 -7 -38 -13 0 -13 297 -12 305 1 4 6 -9 10
-32 10 -21 1 -74 2 -118 3 -44 1 -97 1 -117 -1z"/>
<path d="M5208 1303 c-40 -3 -48 -8 -48 -24 0 -26 -36 -25 -43 1 -5 20 -12 20
-149 18 -140 -3 -143 -4 -146 -25 l-3 -23 320 0 c207 0 321 4 321 10 0 6 -40
10 -100 10 -60 0 -100 4 -100 10 0 6 40 10 100 10 60 0 100 4 100 10 0 10
-145 11 -252 3z"/>
<path d="M3463 1263 c-1 -25 2 -32 8 -22 11 18 12 46 1 53 -4 3 -9 -11 -9 -31z"/>
<path d="M4683 1283 c-3 -10 -8 -21 -10 -25 -2 -5 21 -8 52 -8 53 0 56 1 53
23 -2 18 -10 23 -46 25 -33 3 -44 -1 -49 -15z"/>
<path d="M1790 1068 c0 -122 3 -218 7 -214 4 3 6 28 5 54 -3 76 6 112 28 112
10 0 23 -8 29 -17 6 -12 9 19 10 100 0 64 -3 117 -7 117 -4 0 -7 -33 -6 -72 1
-95 -2 -106 -32 -104 l-25 1 3 114 c3 101 5 114 21 117 11 1 22 -7 27 -22 13
-32 20 -30 20 6 0 28 -2 30 -40 30 l-40 0 0 -222z"/>
<path d="M1892 1260 c0 -19 2 -27 5 -17 2 9 2 25 0 35 -3 9 -5 1 -5 -18z"/>
<path d="M2087 1261 c3 -12 9 -21 14 -21 14 0 11 16 -5 29 -12 10 -13 8 -9 -8z"/>
<path d="M2061 1254 c0 -11 3 -14 6 -6 3 7 2 16 -1 19 -3 4 -6 -2 -5 -13z"/>
<path d="M2865 1260 c3 -5 8 -10 11 -10 2 0 4 5 4 10 0 6 -5 10 -11 10 -5 0
-7 -4 -4 -10z"/>
<path d="M3420 1255 c0 -8 4 -15 10 -15 5 0 7 7 4 15 -4 8 -8 15 -10 15 -2 0
-4 -7 -4 -15z"/>
<path d="M3511 1254 c0 -11 3 -14 6 -6 3 7 2 16 -1 19 -3 4 -6 -2 -5 -13z"/>
<path d="M3706 1248 c3 -13 10 -24 15 -26 4 -2 5 -10 2 -18 -4 -12 19 -14 146
-14 128 0 151 2 151 15 0 8 4 15 8 15 5 0 14 11 20 25 l12 25 -181 0 -180 0 7
-22z m82 -26 c3 -17 -2 -22 -17 -22 -16 0 -21 6 -21 26 0 33 33 30 38 -4z m67
1 c1 -16 -4 -23 -17 -23 -13 0 -18 7 -18 26 0 33 33 30 35 -3z m66 20 c0 -5 2
-16 4 -25 2 -13 -3 -18 -19 -18 -18 0 -22 5 -20 23 1 12 3 23 3 25 2 6 31 1
32 -5z m74 -20 c1 -17 -4 -23 -20 -23 -18 0 -21 4 -17 25 6 32 35 30 37 -2z"/>
<path d="M4197 1250 c3 -11 7 -20 9 -20 2 0 4 9 4 20 0 11 -4 20 -9 20 -5 0
-7 -9 -4 -20z"/>
<path d="M1363 1195 c0 -38 2 -53 4 -32 2 20 2 52 0 70 -2 17 -4 1 -4 -38z"/>
<path d="M1921 1244 c0 -11 3 -14 6 -6 3 7 2 16 -1 19 -3 4 -6 -2 -5 -13z"/>
<path d="M1952 1223 c-1 -14 1 -23 5 -19 10 10 14 46 5 46 -4 0 -9 -12 -10
-27z"/>
<path d="M1748 1233 c7 -3 16 -2 19 1 4 3 -2 6 -13 5 -11 0 -14 -3 -6 -6z"/>
<path d="M2868 1233 c7 -3 16 -2 19 1 4 3 -2 6 -13 5 -11 0 -14 -3 -6 -6z"/>
<path d="M1543 1219 c11 -7 23 -7 35 0 14 9 11 10 -18 10 -29 0 -32 -1 -17
-10z"/>
<path d="M2078 1223 c6 -3 12 -13 12 -24 0 -10 5 -19 11 -19 6 0 9 9 6 20 -3
10 0 21 7 23 6 2 -2 4 -19 4 -16 0 -24 -2 -17 -4z"/>
<path d="M2126 1214 c-3 -9 -6 -19 -6 -22 0 -4 79 -6 176 -4 138 3 179 0 185
-10 6 -8 8 -3 8 17 0 17 -3 24 -6 18 -3 -10 -45 -13 -159 -12 -156 0 -188 4
-178 20 3 5 1 9 -4 9 -6 0 -13 -7 -16 -16z"/>
<path d="M1892 1200 c0 -14 2 -19 5 -12 2 6 2 18 0 25 -3 6 -5 1 -5 -13z"/>
<path d="M2507 1213 c-13 -12 -7 -43 8 -43 9 0 15 9 15 25 0 24 -10 32 -23 18z"/>
<path d="M2540 1193 c0 -21 4 -23 50 -23 46 0 50 2 50 23 0 21 -4 23 -50 23
-46 0 -50 -2 -50 -23z"/>
<path d="M2650 1195 c0 -16 6 -25 15 -25 9 0 15 9 15 25 0 16 -6 25 -15 25 -9
0 -15 -9 -15 -25z"/>
<path d="M5790 1201 c0 -15 6 -21 21 -21 25 0 22 33 -4 38 -12 2 -17 -3 -17
-17z"/>
<path d="M5840 1200 c0 -13 7 -20 20 -20 13 0 20 7 20 20 0 13 -7 20 -20 20
-13 0 -20 -7 -20 -20z"/>
<path d="M5900 1200 c0 -11 6 -20 13 -20 19 0 27 10 20 26 -8 21 -33 17 -33
-6z"/>
<path d="M5950 1200 c0 -13 7 -20 20 -20 13 0 20 7 20 20 0 13 -7 20 -20 20
-13 0 -20 -7 -20 -20z"/>
<path d="M1515 1201 c-7 -12 12 -24 25 -16 11 7 4 25 -10 25 -5 0 -11 -4 -15
-9z"/>
<path d="M1575 1201 c-7 -12 12 -24 25 -16 11 7 4 25 -10 25 -5 0 -11 -4 -15
-9z"/>
<path d="M1620 1193 c0 -11 7 -23 15 -27 19 -7 19 3 0 28 -15 19 -15 19 -15
-1z"/>
<path d="M2061 1194 c0 -11 3 -14 6 -6 3 7 2 16 -1 19 -3 4 -6 -2 -5 -13z"/>
<path d="M2738 1203 c7 -3 16 -2 19 1 4 3 -2 6 -13 5 -11 0 -14 -3 -6 -6z"/>
<path d="M2848 1203 c7 -3 16 -2 19 1 4 3 -2 6 -13 5 -11 0 -14 -3 -6 -6z"/>
<path d="M3608 1203 c7 -3 16 -2 19 1 4 3 -2 6 -13 5 -11 0 -14 -3 -6 -6z"/>
<path d="M4108 1203 c7 -3 16 -2 19 1 4 3 -2 6 -13 5 -11 0 -14 -3 -6 -6z"/>
<path d="M1480 1185 c-15 -19 -11 -25 12 -16 11 4 14 11 9 19 -6 10 -10 10
-21 -3z"/>
<path d="M2730 1179 c0 -6 -4 -7 -10 -4 -6 3 -10 -4 -9 -17 0 -13 3 -17 6 -10
2 6 9 10 14 6 5 -3 8 0 7 8 -2 8 7 13 22 13 23 0 26 -5 31 -50 l6 -50 3 55 c1
30 5 45 7 33 5 -27 21 -31 19 -6 0 11 7 19 21 21 20 3 22 -2 25 -50 l3 -53 5
57 5 57 -77 0 c-46 0 -78 -4 -78 -10z"/>
<path d="M3388 1180 c-2 -6 -1 -32 2 -58 l4 -47 6 50 c4 42 9 51 27 53 14 2
23 -3 28 -17 3 -12 13 -21 20 -21 11 0 12 6 6 23 -6 17 -17 23 -49 25 -22 2
-42 -2 -44 -8z"/>
<path d="M3490 1183 c0 -5 4 -14 9 -22 10 -15 51 -6 51 11 0 6 9 8 20 5 11 -3
20 -1 20 4 0 5 -22 9 -50 9 -27 0 -50 -3 -50 -7z m40 -13 c0 -5 -7 -7 -15 -4
-8 4 -15 8 -15 10 0 2 7 4 15 4 8 0 15 -4 15 -10z"/>
<path d="M3613 1183 c-15 -5 -18 -43 -4 -43 6 0 13 5 17 12 5 7 3 8 -7 3 -12
-8 -12 -6 0 9 8 9 24 16 35 14 17 -2 22 -12 27 -53 l6 -50 1 58 2 57 -32 -1
c-18 0 -39 -3 -45 -6z"/>
<path d="M4780 1141 c0 -47 -2 -50 -30 -56 -16 -4 -30 -11 -30 -16 0 -5 -9 -9
-20 -9 -11 0 -20 -4 -20 -9 0 -4 -17 -15 -37 -24 -36 -14 -30 -15 145 -16
l183 -1 -3 87 c-2 63 -7 88 -17 91 -8 3 -11 0 -8 -5 4 -6 -5 -15 -19 -22 -33
-14 -32 -15 -37 12 -4 18 -5 17 -6 -7 -1 -21 -5 -27 -17 -22 -8 3 -13 2 -10
-2 3 -5 -10 -16 -29 -25 l-35 -17 0 39 c0 22 5 42 13 44 7 3 5 6 -5 6 -15 1
-18 -8 -18 -48z"/>
<path d="M5153 1155 c0 -22 2 -30 4 -17 2 12 2 30 0 40 -3 9 -5 -1 -4 -23z"/>
<path d="M5250 1161 c0 -16 -2 -44 -5 -62 -4 -26 -3 -28 3 -9 6 19 18 26 50
33 54 10 54 27 1 27 -26 0 -38 4 -34 11 8 12 125 9 125 -4 0 -4 4 -6 10 -2 5
3 7 12 3 20 -4 11 -23 15 -79 15 l-74 0 0 -29z"/>
<path d="M3032 1160 c0 -14 2 -19 5 -12 2 6 2 18 0 25 -3 6 -5 1 -5 -13z"/>
<path d="M3156 1155 c-19 -18 -26 -20 -26 -9 0 11 -9 14 -37 12 -36 -3 -37 -4
-37 -46 -1 -24 2 -46 7 -49 4 -2 7 16 7 41 0 42 2 46 25 46 23 0 25 -4 25 -47
0 -35 3 -44 10 -33 6 10 10 11 10 3 0 -7 5 -13 10 -13 6 0 10 9 10 20 0 13 -5
18 -15 14 -10 -4 -15 0 -15 11 0 11 5 15 15 11 11 -4 15 0 13 12 -2 11 5 18
19 20 19 3 22 -2 26 -45 l3 -48 2 48 c2 40 5 47 22 47 13 0 20 -7 20 -20 0
-13 5 -18 15 -14 10 4 15 0 15 -11 0 -11 -5 -15 -15 -11 -10 4 -15 -1 -15 -16
0 -18 2 -19 17 -7 11 10 14 10 9 2 -4 -7 -3 -13 3 -13 5 0 11 19 13 43 2 34 7
43 25 45 24 4 38 -25 28 -57 -3 -11 -1 -22 5 -26 10 -6 13 5 11 40 -2 17 0 17
8 5 6 -8 11 -10 11 -5 0 6 -5 16 -12 23 -9 9 -9 12 0 12 7 0 12 4 12 8 0 5
-22 9 -50 11 -39 2 -50 -1 -50 -14 0 -8 -4 -15 -10 -15 -5 0 -9 6 -7 13 1 8
-13 13 -41 15 -23 2 -40 7 -37 13 10 16 -1 10 -29 -16z"/>
<path d="M3288 1173 c7 -3 16 -2 19 1 4 3 -2 6 -13 5 -11 0 -14 -3 -6 -6z"/>
<path d="M3837 1162 c-20 -10 -32 -11 -41 -3 -7 6 -15 9 -17 6 -3 -2 -21 -5
-42 -7 -20 -1 -37 -6 -37 -10 0 -4 5 -8 10 -8 6 0 11 -19 11 -42 1 -25 3 -32
6 -18 10 65 13 71 36 68 18 -2 23 -10 25 -45 2 -33 7 -43 20 -43 11 0 18 8 19
23 2 21 1 21 -13 3 -13 -19 -14 -17 -14 17 0 20 5 37 11 37 5 0 8 -4 4 -9 -3
-5 -1 -12 5 -16 6 -3 10 3 10 15 0 15 5 20 18 18 12 -2 19 -16 23 -48 l6 -45
1 48 c2 40 5 47 22 47 20 0 23 -8 22 -62 0 -21 4 -28 19 -28 16 0 19 7 19 45
0 41 2 45 25 45 23 0 25 -4 25 -47 0 -58 12 -49 15 11 3 50 -8 60 -52 47 -29
-9 -94 -3 -103 8 -3 4 -18 1 -33 -7z m113 -69 c-1 -24 -2 -26 -11 -10 -5 9 -7
22 -4 27 10 17 15 11 15 -17z"/>
<path d="M1748 1163 c7 -3 16 -2 19 1 4 3 -2 6 -13 5 -11 0 -14 -3 -6 -6z"/>
<path d="M2750 1160 c0 -5 7 -10 16 -10 8 0 12 5 9 10 -3 6 -10 10 -16 10 -5
0 -9 -4 -9 -10z"/>
<path d="M2840 1160 c0 -5 5 -10 10 -10 6 0 10 5 10 10 0 6 -4 10 -10 10 -5 0
-10 -4 -10 -10z"/>
<path d="M3415 1160 c-3 -5 1 -10 9 -10 9 0 16 5 16 10 0 6 -4 10 -9 10 -6 0
-13 -4 -16 -10z"/>
<path d="M3560 1160 c0 -5 5 -10 11 -10 5 0 7 5 4 10 -3 6 -8 10 -11 10 -2 0
-4 -4 -4 -10z"/>
<path d="M3640 1160 c0 -5 7 -10 16 -10 8 0 12 5 9 10 -3 6 -10 10 -16 10 -5
0 -9 -4 -9 -10z"/>
<path d="M4080 1160 c0 -5 7 -10 16 -10 8 0 12 5 9 10 -3 6 -10 10 -16 10 -5
0 -9 -4 -9 -10z"/>
<path d="M4170 1160 c0 -5 5 -10 10 -10 6 0 10 5 10 10 0 6 -4 10 -10 10 -5 0
-10 -4 -10 -10z"/>
<path d="M4982 1145 c0 -16 2 -22 5 -12 2 9 2 23 0 30 -3 6 -5 -1 -5 -18z"/>
<path d="M5515 1160 c3 -5 8 -10 11 -10 2 0 4 5 4 10 0 6 -5 10 -11 10 -5 0
-7 -4 -4 -10z"/>
<path d="M5545 1160 c3 -5 8 -10 11 -10 2 0 4 5 4 10 0 6 -5 10 -11 10 -5 0
-7 -4 -4 -10z"/>
<path d="M5790 1155 c0 -8 9 -15 20 -15 11 0 20 7 20 15 0 8 -9 15 -20 15 -11
0 -20 -7 -20 -15z"/>
<path d="M5840 1155 c0 -8 9 -15 20 -15 11 0 20 7 20 15 0 8 -9 15 -20 15 -11
0 -20 -7 -20 -15z"/>
<path d="M5900 1155 c0 -8 8 -15 18 -15 10 0 19 7 19 15 0 8 -9 15 -19 15 -10
0 -18 -7 -18 -15z"/>
<path d="M5950 1155 c0 -8 9 -15 20 -15 11 0 20 7 20 15 0 8 -9 15 -20 15 -11
0 -20 -7 -20 -15z"/>
<path d="M1490 1146 c0 -9 7 -16 16 -16 9 0 14 5 12 12 -6 18 -28 21 -28 4z"/>
<path d="M1545 1151 c-7 -12 12 -24 25 -16 11 7 4 25 -10 25 -5 0 -11 -4 -15
-9z"/>
<path d="M1607 1154 c-8 -8 1 -24 14 -24 5 0 9 7 9 15 0 15 -12 20 -23 9z"/>
<path d="M1892 1138 c2 -19 10 -24 41 -26 34 -3 37 -1 37 22 0 24 -4 26 -41
26 -36 0 -40 -2 -37 -22z"/>
<path d="M1980 1135 c0 -22 4 -25 40 -25 36 0 40 3 40 25 0 23 -4 25 -40 25
-36 0 -40 -2 -40 -25z"/>
<path d="M2080 1135 c0 -22 4 -25 39 -25 33 0 40 4 44 23 l4 22 2 -22 c1 -20
7 -23 41 -23 36 0 40 3 40 25 0 25 -1 25 -85 25 -84 0 -85 0 -85 -25z"/>
<path d="M1222 1070 c0 -45 4 -80 9 -80 6 0 9 34 8 80 -1 44 -5 80 -9 80 -4 0
-8 -36 -8 -80z"/>
<path d="M2533 1143 c32 -2 81 -2 110 0 29 2 3 3 -58 3 -60 0 -84 -1 -52 -3z"/>
<path d="M2722 1124 c-7 -8 -11 -20 -9 -27 4 -8 6 -7 6 3 1 12 3 13 10 1 6 -9
9 -5 9 13 0 14 -1 26 -2 26 0 -1 -7 -7 -14 -16z"/>
<path d="M2761 1124 c0 -11 3 -14 6 -6 3 7 2 16 -1 19 -3 4 -6 -2 -5 -13z"/>
<path d="M3080 1130 c0 -5 7 -10 15 -10 8 0 15 5 15 10 0 6 -7 10 -15 10 -8 0
-15 -4 -15 -10z"/>
<path d="M3170 1130 c0 -5 5 -10 10 -10 6 0 10 5 10 10 0 6 -4 10 -10 10 -5 0
-10 -4 -10 -10z"/>
<path d="M3220 1130 c0 -5 5 -10 10 -10 6 0 10 5 10 10 0 6 -4 10 -10 10 -5 0
-10 -4 -10 -10z"/>
<path d="M3310 1130 c0 -5 5 -10 10 -10 6 0 10 5 10 10 0 6 -4 10 -10 10 -5 0
-10 -4 -10 -10z"/>
<path d="M3422 1110 c0 -19 2 -27 5 -17 2 9 2 25 0 35 -3 9 -5 1 -5 -18z"/>
<path d="M3511 1124 c0 -11 3 -14 6 -6 3 7 2 16 -1 19 -3 4 -6 -2 -5 -13z"/>
<path d="M3651 1124 c0 -11 3 -14 6 -6 3 7 2 16 -1 19 -3 4 -6 -2 -5 -13z"/>
<path d="M3750 1130 c0 -5 7 -10 16 -10 8 0 12 5 9 10 -3 6 -10 10 -16 10 -5
0 -9 -4 -9 -10z"/>
<path d="M3840 1130 c0 -5 5 -10 10 -10 6 0 10 5 10 10 0 6 -4 10 -10 10 -5 0
-10 -4 -10 -10z"/>
<path d="M3890 1130 c0 -5 5 -10 10 -10 6 0 10 5 10 10 0 6 -4 10 -10 10 -5 0
-10 -4 -10 -10z"/>
<path d="M3970 1130 c0 -5 7 -10 15 -10 8 0 15 5 15 10 0 6 -7 10 -15 10 -8 0
-15 -4 -15 -10z"/>
<path d="M4085 1131 c-3 -5 -1 -12 5 -16 5 -3 10 1 10 9 0 18 -6 21 -15 7z"/>
<path d="M4171 1124 c0 -11 3 -14 6 -6 3 7 2 16 -1 19 -3 4 -6 -2 -5 -13z"/>
<path d="M5583 1105 c0 -22 2 -30 4 -17 2 12 2 30 0 40 -3 9 -5 -1 -4 -23z"/>
<path d="M1470 1122 c0 -5 9 -20 19 -33 20 -24 20 -24 14 -2 -6 24 -33 53 -33
35z"/>
<path d="M1632 1114 c-7 -8 -12 -20 -9 -27 2 -7 9 -2 16 11 15 28 11 36 -7 16z"/>
<path d="M3460 1106 c0 -28 14 -35 23 -12 3 8 -1 20 -9 26 -12 10 -14 8 -14
-14z"/>
<path d="M3562 1110 c0 -14 2 -19 5 -12 2 6 2 18 0 25 -3 6 -5 1 -5 -13z"/>
<path d="M5790 1110 c0 -13 7 -20 20 -20 13 0 20 7 20 20 0 13 -7 20 -20 20
-13 0 -20 -7 -20 -20z"/>
<path d="M5840 1110 c0 -13 7 -20 20 -20 13 0 20 7 20 20 0 13 -7 20 -20 20
-13 0 -20 -7 -20 -20z"/>
<path d="M5900 1110 c0 -15 5 -20 18 -18 9 2 17 10 17 18 0 8 -8 16 -17 18
-13 2 -18 -3 -18 -18z"/>
<path d="M5950 1110 c0 -13 7 -20 20 -20 13 0 20 7 20 20 0 13 -7 20 -20 20
-13 0 -20 -7 -20 -20z"/>
<path d="M1362 1100 c0 -14 2 -19 5 -12 2 6 2 18 0 25 -3 6 -5 1 -5 -13z"/>
<path d="M2482 1095 c0 -16 2 -22 5 -12 2 9 2 23 0 30 -3 6 -5 -1 -5 -18z"/>
<path d="M2500 1095 c0 -16 6 -25 15 -25 9 0 15 9 15 25 0 16 -6 25 -15 25 -9
0 -15 -9 -15 -25z"/>
<path d="M2540 1095 c0 -26 24 -35 33 -12 4 10 6 10 6 0 1 -8 14 -13 31 -13
25 0 30 4 30 25 0 23 -3 25 -50 25 -47 0 -50 -2 -50 -25z"/>
<path d="M2650 1095 c0 -16 6 -25 15 -25 9 0 15 9 15 25 0 16 -6 25 -15 25 -9
0 -15 -9 -15 -25z"/>
<path d="M2692 1095 c0 -16 2 -22 5 -12 2 9 2 23 0 30 -3 6 -5 -1 -5 -18z"/>
<path d="M2810 1099 c0 -11 4 -18 10 -14 5 3 7 12 3 20 -7 21 -13 19 -13 -6z"/>
<path d="M3032 1100 c0 -14 2 -19 5 -12 2 6 2 18 0 25 -3 6 -5 1 -5 -13z"/>
<path d="M3600 1100 c0 -11 5 -20 10 -20 6 0 10 9 10 20 0 11 -4 20 -10 20 -5
0 -10 -9 -10 -20z"/>
<path d="M1520 1096 c0 -9 7 -16 16 -16 17 0 14 22 -4 28 -7 2 -12 -3 -12 -12z"/>
<path d="M1575 1101 c-7 -12 12 -24 25 -16 11 7 4 25 -10 25 -5 0 -11 -4 -15
-9z"/>
<path d="M3089 1108 c-6 -19 -3 -48 4 -45 13 4 17 47 5 47 -4 0 -8 -1 -9 -2z"/>
<path d="M3170 1100 c0 -5 5 -10 10 -10 6 0 10 5 10 10 0 6 -4 10 -10 10 -5 0
-10 -4 -10 -10z"/>
<path d="M3223 1085 c0 -14 3 -25 8 -25 5 0 9 11 9 25 0 14 -4 25 -9 25 -5 0
-8 -11 -8 -25z"/>
<path d="M3310 1085 c0 -14 4 -25 9 -25 5 0 9 11 9 25 0 14 -4 25 -9 25 -5 0
-9 -11 -9 -25z"/>
<path d="M3753 1085 c0 -14 3 -25 8 -25 5 0 9 11 9 25 0 14 -4 25 -9 25 -5 0
-8 -11 -8 -25z"/>
<path d="M3841 1083 c0 -25 1 -26 9 -8 12 27 12 35 0 35 -5 0 -10 -12 -9 -27z"/>
<path d="M3895 1100 c-3 -5 -1 -10 4 -10 6 0 11 5 11 10 0 6 -2 10 -4 10 -3 0
-8 -4 -11 -10z"/>
<path d="M3980 1085 c0 -14 2 -25 4 -25 2 0 6 11 8 25 3 14 1 25 -3 25 -5 0
-9 -11 -9 -25z"/>
<path d="M5551 1084 c0 -11 3 -14 6 -6 3 7 2 16 -1 19 -3 4 -6 -2 -5 -13z"/>
<path d="M1908 1083 c12 -2 32 -2 45 0 12 2 2 4 -23 4 -25 0 -35 -2 -22 -4z"/>
<path d="M1998 1083 c12 -2 32 -2 45 0 12 2 2 4 -23 4 -25 0 -35 -2 -22 -4z"/>
<path d="M2098 1083 c12 -2 32 -2 45 0 12 2 2 4 -23 4 -25 0 -35 -2 -22 -4z"/>
<path d="M2188 1083 c12 -2 32 -2 45 0 12 2 2 4 -23 4 -25 0 -35 -2 -22 -4z"/>
<path d="M5840 1065 c0 -8 9 -15 20 -15 11 0 20 7 20 15 0 8 -9 15 -20 15 -11
0 -20 -7 -20 -15z"/>
<path d="M5900 1064 c0 -9 7 -14 17 -12 25 5 28 28 4 28 -12 0 -21 -6 -21 -16z"/>
<path d="M5950 1065 c0 -8 9 -15 20 -15 11 0 20 7 20 15 0 8 -9 15 -20 15 -11
0 -20 -7 -20 -15z"/>
<path d="M1540 1060 c0 -5 9 -10 20 -10 11 0 20 5 20 10 0 6 -9 10 -20 10 -11
0 -20 -4 -20 -10z"/>
<path d="M2770 1066 c0 -2 7 -6 15 -10 8 -3 15 -1 15 4 0 6 -7 10 -15 10 -8 0
-15 -2 -15 -4z"/>
<path d="M1363 1025 c0 -22 2 -30 4 -17 2 12 2 30 0 40 -3 9 -5 -1 -4 -23z"/>
<path d="M1890 1050 c0 -5 18 -10 40 -10 22 0 40 5 40 10 0 6 -18 10 -40 10
-22 0 -40 -4 -40 -10z"/>
<path d="M1980 1050 c0 -5 18 -10 40 -10 22 0 40 5 40 10 0 6 -18 10 -40 10
-22 0 -40 -4 -40 -10z"/>
<path d="M2080 1050 c0 -5 18 -10 40 -10 22 0 40 5 40 10 0 6 -18 10 -40 10
-22 0 -40 -4 -40 -10z"/>
<path d="M2170 1050 c0 -5 18 -10 40 -10 22 0 40 5 40 10 0 6 -18 10 -40 10
-22 0 -40 -4 -40 -10z"/>
<path d="M4982 1040 c0 -14 2 -19 5 -12 2 6 2 18 0 25 -3 6 -5 1 -5 -13z"/>
<path d="M2533 1043 c32 -2 81 -2 110 0 29 2 3 3 -58 3 -60 0 -84 -1 -52 -3z"/>
<path d="M1763 1005 c0 -22 2 -30 4 -17 2 12 2 30 0 40 -3 9 -5 -1 -4 -23z"/>
<path d="M5080 1030 c0 -5 5 -10 11 -10 5 0 7 5 4 10 -3 6 -8 10 -11 10 -2 0
-4 -4 -4 -10z"/>
<path d="M5840 1020 c0 -13 7 -20 20 -20 13 0 20 7 20 20 0 13 -7 20 -20 20
-13 0 -20 -7 -20 -20z"/>
<path d="M5900 1020 c0 -11 7 -20 15 -20 8 0 15 9 15 20 0 11 -7 20 -15 20 -8
0 -15 -9 -15 -20z"/>
<path d="M5950 1020 c0 -13 7 -20 20 -20 13 0 20 7 20 20 0 13 -7 20 -20 20
-13 0 -20 -7 -20 -20z"/>
<path d="M820 1010 c0 -5 5 -10 10 -10 6 0 10 5 10 10 0 6 -4 10 -10 10 -5 0
-10 -4 -10 -10z"/>
<path d="M1908 1013 c12 -2 32 -2 45 0 12 2 2 4 -23 4 -25 0 -35 -2 -22 -4z"/>
<path d="M1998 1013 c12 -2 32 -2 45 0 12 2 2 4 -23 4 -25 0 -35 -2 -22 -4z"/>
<path d="M2098 1013 c12 -2 32 -2 45 0 12 2 2 4 -23 4 -25 0 -35 -2 -22 -4z"/>
<path d="M2188 1013 c12 -2 30 -2 40 0 9 3 -1 5 -23 4 -22 0 -30 -2 -17 -4z"/>
<path d="M2650 995 c0 -16 6 -25 15 -25 9 0 15 9 15 25 0 16 -6 25 -15 25 -9
0 -15 -9 -15 -25z"/>
<path d="M2690 995 c1 -26 2 -28 11 -12 8 14 8 22 0 30 -8 8 -11 3 -11 -18z"/>
<path d="M2742 999 c-14 -22 -7 -25 14 -5 8 8 11 17 6 20 -4 2 -13 -4 -20 -15z"/>
<path d="M2883 1006 c3 -8 1 -17 -6 -20 -7 -3 26 -4 72 -3 72 2 85 5 87 20 2
15 -7 17 -78 17 -66 0 -79 -3 -75 -14z"/>
<path d="M3480 1011 c0 -5 5 -13 10 -16 6 -3 10 -2 10 4 0 5 -4 13 -10 16 -5
3 -10 2 -10 -4z"/>
<path d="M3515 1010 c-3 -5 -1 -10 4 -10 6 0 11 5 11 10 0 6 -2 10 -4 10 -3 0
-8 -4 -11 -10z"/>
<path d="M3587 1013 c-10 -10 -8 -25 2 -19 5 4 11 0 14 -6 2 -7 7 -11 10 -8 3
3 0 13 -7 22 -7 10 -16 15 -19 11z"/>
<path d="M158 1003 c7 -3 16 -2 19 1 4 3 -2 6 -13 5 -11 0 -14 -3 -6 -6z"/>
<path d="M860 995 c0 -18 21 -20 38 -3 9 9 12 9 12 0 0 -7 7 -12 15 -12 8 0
15 7 15 15 0 11 -11 15 -40 15 -29 0 -40 -4 -40 -15z"/>
<path d="M960 995 c0 -8 7 -15 15 -15 8 0 15 7 15 15 0 8 -7 15 -15 15 -8 0
-15 -7 -15 -15z"/>
<path d="M1000 995 c0 -8 9 -15 20 -15 11 0 20 7 20 15 0 8 -9 15 -20 15 -11
0 -20 -7 -20 -15z"/>
<path d="M1060 995 c0 -8 7 -15 15 -15 8 0 15 7 15 15 0 8 -7 15 -15 15 -8 0
-15 -7 -15 -15z"/>
<path d="M1100 995 c0 -8 9 -15 20 -15 11 0 20 7 20 15 0 8 -9 15 -20 15 -11
0 -20 -7 -20 -15z"/>
<path d="M1160 994 c0 -8 5 -12 10 -9 6 3 10 10 10 16 0 5 -4 9 -10 9 -5 0
-10 -7 -10 -16z"/>
<path d="M1403 1003 c-7 -3 -13 -19 -13 -36 l1 -32 15 28 c17 31 16 46 -3 40z"/>
<path d="M1524 996 c-3 -8 -4 -23 -2 -32 2 -14 6 -12 15 9 8 16 9 29 3 32 -6
4 -13 -1 -16 -9z"/>
<path d="M1577 1003 c-3 -5 1 -19 9 -33 l13 -25 1 27 c0 27 -14 45 -23 31z"/>
<path d="M1644 996 c-3 -8 -4 -25 -2 -38 3 -21 4 -20 15 9 12 32 -1 60 -13 29z"/>
<path d="M1831 994 c0 -11 3 -14 6 -6 3 7 2 16 -1 19 -3 4 -6 -2 -5 -13z"/>
<path d="M2260 999 c0 -5 29 -9 65 -9 36 0 65 4 65 10 0 5 -28 9 -65 9 -36 -1
-65 -5 -65 -10z"/>
<path d="M2576 993 c-6 -14 -5 -15 5 -6 7 7 10 15 7 18 -3 3 -9 -2 -12 -12z"/>
<path d="M2632 990 c0 -14 2 -19 5 -12 2 6 2 18 0 25 -3 6 -5 1 -5 -13z"/>
<path d="M2780 999 c0 -5 5 -7 10 -4 6 3 10 8 10 11 0 2 -4 4 -10 4 -5 0 -10
-5 -10 -11z"/>
<path d="M2845 1000 c4 -6 11 -8 16 -5 14 9 11 15 -7 15 -8 0 -12 -5 -9 -10z"/>
<path d="M3382 998 c3 -7 12 -14 22 -14 13 -2 13 -1 1 3 -8 2 -13 9 -10 14 4
5 1 9 -5 9 -7 0 -10 -6 -8 -12z"/>
<path d="M1458 983 c5 -10 12 -25 15 -33 3 -8 6 0 6 18 1 22 -4 32 -14 32 -12
0 -13 -5 -7 -17z"/>
<path d="M1700 993 c1 -5 7 -19 15 -33 l14 -25 1 33 c0 22 -5 32 -15 32 -8 0
-15 -3 -15 -7z"/>
<path d="M3063 993 c9 -2 23 -2 30 0 6 3 -1 5 -18 5 -16 0 -22 -2 -12 -5z"/>
<path d="M3123 993 c9 -2 23 -2 30 0 6 3 -1 5 -18 5 -16 0 -22 -2 -12 -5z"/>
<path d="M3177 994 c-3 -4 -2 -14 3 -24 5 -9 10 -36 11 -58 2 -27 8 -42 16
-42 9 0 13 16 13 55 0 51 -12 72 -23 43 -3 -8 -6 -5 -6 6 -1 14 4 17 19 13 11
-3 20 -1 20 4 0 10 -43 12 -53 3z"/>
<path d="M3250 990 c0 -5 7 -7 16 -3 9 3 20 0 25 -8 7 -11 9 -11 9 4 0 12 -8
17 -25 17 -14 0 -25 -4 -25 -10z"/>
<path d="M3310 978 c1 -21 2 -21 11 -5 5 9 15 17 22 17 7 0 6 -4 -3 -10 -8 -5
-11 -12 -7 -17 5 -4 12 -1 17 7 15 24 12 30 -15 30 -19 0 -25 -5 -25 -22z"/>
<path d="M5052 975 c0 -16 2 -22 5 -12 2 9 2 23 0 30 -3 6 -5 -1 -5 -18z"/>
<path d="M1407 930 c-14 -33 -23 -60 -21 -60 3 0 15 12 28 27 l23 26 21 -21
c15 -15 22 -33 21 -59 -1 -21 -3 -30 -6 -20 -2 9 -11 17 -20 17 -13 0 -13 -3
-3 -15 9 -10 9 -15 1 -15 -6 0 -11 -7 -11 -15 0 -8 7 -15 15 -15 8 0 15 6 15
13 0 8 4 7 10 -3 11 -18 13 -9 10 53 -1 31 -44 147 -54 147 -2 0 -14 -27 -29
-60z"/>
<path d="M1890 980 c0 -5 18 -10 40 -10 22 0 40 5 40 10 0 6 -18 10 -40 10
-22 0 -40 -4 -40 -10z"/>
<path d="M1980 980 c0 -5 18 -10 40 -10 22 0 40 5 40 10 0 6 -18 10 -40 10
-22 0 -40 -4 -40 -10z"/>
<path d="M2085 980 c-4 -6 10 -10 34 -10 23 0 41 5 41 10 0 6 -15 10 -34 10
-19 0 -38 -4 -41 -10z"/>
<path d="M2170 980 c0 -5 16 -10 35 -10 19 0 35 5 35 10 0 6 -16 10 -35 10
-19 0 -35 -4 -35 -10z"/>
<path d="M3460 935 c0 -37 4 -55 13 -55 8 0 11 16 9 55 -5 71 -22 71 -22 0z"/>
<path d="M3530 935 c0 -30 5 -55 10 -55 6 0 10 25 10 55 0 30 -4 55 -10 55 -5
0 -10 -25 -10 -55z"/>
<path d="M5783 975 c0 -10 8 -15 20 -13 30 4 34 28 5 28 -16 0 -25 -6 -25 -15z"/>
<path d="M5840 975 c0 -8 9 -15 20 -15 11 0 20 7 20 15 0 8 -9 15 -20 15 -11
0 -20 -7 -20 -15z"/>
<path d="M5900 975 c0 -8 9 -15 20 -15 11 0 20 7 20 15 0 8 -9 15 -20 15 -11
0 -20 -7 -20 -15z"/>
<path d="M5950 975 c0 -8 9 -15 20 -15 11 0 20 7 20 15 0 8 -9 15 -20 15 -11
0 -20 -7 -20 -15z"/>
<path d="M1362 955 c0 -16 2 -22 5 -12 2 9 2 23 0 30 -3 6 -5 -1 -5 -18z"/>
<path d="M3260 945 c0 -41 25 -49 32 -10 3 13 1 22 -3 19 -5 -3 -9 2 -9 10 0
9 -4 16 -10 16 -5 0 -10 -16 -10 -35z"/>
<path d="M820 959 c0 -5 5 -7 10 -4 6 3 10 8 10 11 0 2 -4 4 -10 4 -5 0 -10
-5 -10 -11z"/>
<path d="M860 950 c0 -13 7 -20 19 -20 14 0 18 5 14 20 -3 11 -12 20 -19 20
-8 0 -14 -9 -14 -20z"/>
<path d="M910 950 c0 -11 7 -20 15 -20 8 0 15 9 15 20 0 11 -7 20 -15 20 -8 0
-15 -9 -15 -20z"/>
<path d="M1005 960 c-8 -14 3 -30 21 -30 8 0 14 9 14 20 0 21 -24 28 -35 10z"/>
<path d="M1060 950 c0 -11 7 -20 15 -20 8 0 15 9 15 20 0 11 -7 20 -15 20 -8
0 -15 -9 -15 -20z"/>
<path d="M1100 950 c0 -13 7 -20 20 -20 13 0 20 7 20 20 0 13 -7 20 -20 20
-13 0 -20 -7 -20 -20z"/>
<path d="M1831 954 c0 -11 3 -14 6 -6 3 7 2 16 -1 19 -3 4 -6 -2 -5 -13z"/>
<path d="M2264 958 c-3 -4 27 -8 66 -8 47 0 69 4 65 10 -8 13 -123 11 -131 -2z"/>
<path d="M2475 960 c27 -12 35 -12 35 0 0 6 -12 10 -27 9 -25 0 -26 -1 -8 -9z"/>
<path d="M2527 964 c7 -3 10 -13 7 -22 -5 -14 -3 -14 6 1 9 14 19 17 37 12 16
-4 22 -2 18 5 -3 5 -23 10 -43 9 -20 0 -32 -3 -25 -5z"/>
<path d="M3600 925 c0 -25 5 -45 10 -45 6 0 10 20 10 45 0 25 -4 45 -10 45 -5
0 -10 -20 -10 -45z"/>
<path d="M1160 951 c0 -6 4 -13 10 -16 6 -3 7 1 4 9 -7 18 -14 21 -14 7z"/>
<path d="M1223 895 c0 -38 2 -53 4 -32 2 20 2 52 0 70 -2 17 -4 1 -4 -38z"/>
<path d="M1763 925 c0 -22 2 -30 4 -17 2 12 2 30 0 40 -3 9 -5 -1 -4 -23z"/>
<path d="M3398 920 c-2 -23 1 -40 7 -40 5 0 10 18 10 40 0 22 -3 40 -6 40 -4
0 -9 -18 -11 -40z"/>
<path d="M1908 943 c12 -2 32 -2 45 0 12 2 2 4 -23 4 -25 0 -35 -2 -22 -4z"/>
<path d="M1980 946 c0 -8 48 -12 66 -5 13 5 7 8 -23 8 -24 1 -43 -1 -43 -3z"/>
<path d="M2098 943 c12 -2 32 -2 45 0 12 2 2 4 -23 4 -25 0 -35 -2 -22 -4z"/>
<path d="M2188 943 c12 -2 30 -2 40 0 9 3 -1 5 -23 4 -22 0 -30 -2 -17 -4z"/>
<path d="M3312 930 c0 -14 2 -19 5 -12 2 6 2 18 0 25 -3 6 -5 1 -5 -13z"/>
<path d="M3330 940 c0 -5 5 -10 10 -10 6 0 10 5 10 10 0 6 -4 10 -10 10 -5 0
-10 -4 -10 -10z"/>
<path d="M5910 941 c0 -17 18 -21 24 -6 3 9 0 15 -9 15 -8 0 -15 -4 -15 -9z"/>
<path d="M5950 930 c0 -13 7 -20 20 -20 13 0 20 7 20 20 0 13 -7 20 -20 20
-13 0 -20 -7 -20 -20z"/>
<path d="M2413 930 c2 -8 16 -16 33 -17 16 0 34 -3 39 -5 6 -1 11 1 12 7 2 5
-14 9 -34 8 -21 -1 -41 4 -46 10 -6 8 -7 7 -4 -3z"/>
<path d="M2570 931 c0 -6 11 -13 25 -17 14 -3 30 -14 35 -23 8 -13 9 -12 10 7
0 13 -4 20 -10 17 -5 -3 -10 2 -10 12 0 15 -2 15 -9 4 -8 -12 -12 -12 -25 -2
-10 9 -16 10 -16 2z"/>
<path d="M2280 919 c-16 -4 1 -7 49 -8 41 -1 72 1 70 3 -9 8 -96 12 -119 5z"/>
<path d="M2740 921 c0 -5 -3 -16 -6 -25 -3 -9 -2 -16 3 -16 5 0 10 11 11 25 1
14 0 25 -3 25 -3 0 -5 -4 -5 -9z"/>
<path d="M5488 923 c7 -3 16 -2 19 1 4 3 -2 6 -13 5 -11 0 -14 -3 -6 -6z"/>
<path d="M755 910 c3 -5 8 -10 11 -10 2 0 4 5 4 10 0 6 -5 10 -11 10 -5 0 -7
-4 -4 -10z"/>
<path d="M820 910 c0 -5 5 -10 10 -10 6 0 10 5 10 10 0 6 -4 10 -10 10 -5 0
-10 -4 -10 -10z"/>
<path d="M860 905 c0 -11 11 -15 40 -15 29 0 40 4 40 15 0 18 -26 20 -34 3 -5
-10 -7 -10 -12 0 -8 17 -34 15 -34 -3z"/>
<path d="M1060 905 c0 -8 7 -15 15 -15 8 0 15 7 15 15 0 8 -7 15 -15 15 -8 0
-15 -7 -15 -15z"/>
<path d="M1100 905 c0 -8 9 -15 20 -15 11 0 20 7 20 15 0 8 -9 15 -20 15 -11
0 -20 -7 -20 -15z"/>
<path d="M1272 877 c0 -26 4 -44 8 -42 7 5 2 75 -6 84 -2 2 -3 -17 -2 -42z"/>
<path d="M1895 910 c-4 -6 10 -10 34 -10 23 0 41 5 41 10 0 6 -15 10 -34 10
-19 0 -38 -4 -41 -10z"/>
<path d="M1980 910 c0 -5 18 -10 40 -10 22 0 40 5 40 10 0 6 -18 10 -40 10
-22 0 -40 -4 -40 -10z"/>
<path d="M2090 910 c0 -5 14 -7 33 -3 45 8 47 13 4 13 -20 0 -37 -4 -37 -10z"/>
<path d="M2175 910 c-4 -6 8 -10 29 -10 20 0 36 5 36 10 0 6 -13 10 -29 10
-17 0 -33 -4 -36 -10z"/>
<path d="M2528 913 c6 -2 18 -2 25 0 6 3 1 5 -13 5 -14 0 -19 -2 -12 -5z"/>
<path d="M2650 900 c0 -11 7 -20 15 -20 8 0 15 9 15 20 0 11 -7 20 -15 20 -8
0 -15 -9 -15 -20z"/>
<path d="M2690 901 c0 -11 4 -22 9 -25 4 -3 6 6 3 19 -5 30 -12 33 -12 6z"/>
<path d="M3330 911 c0 -6 5 -13 10 -16 6 -3 10 1 10 9 0 9 -4 16 -10 16 -5 0
-10 -4 -10 -9z"/>
<path d="M1831 894 c0 -11 3 -14 6 -6 3 7 2 16 -1 19 -3 4 -6 -2 -5 -13z"/>
<path d="M1361 884 c0 -11 3 -14 6 -6 3 7 2 16 -1 19 -3 4 -6 -2 -5 -13z"/>
<path d="M2570 890 c0 -5 -10 -10 -22 -11 -19 -1 -18 -2 7 -10 19 -5 33 -5 40
2 7 7 4 8 -8 3 -13 -5 -16 -2 -11 10 3 9 3 16 0 16 -3 0 -6 -4 -6 -10z"/>
<path d="M2911 873 c2 -24 2 -25 6 -5 4 18 11 22 43 22 l39 0 4 -47 3 -48 2
53 2 52 -50 0 c-48 0 -50 -1 -49 -27z"/>
<path d="M2611 874 c0 -11 3 -14 6 -6 3 7 2 16 -1 19 -3 4 -6 -2 -5 -13z"/>
<path d="M4988 883 c7 -3 16 -2 19 1 4 3 -2 6 -13 5 -11 0 -14 -3 -6 -6z"/>
<path d="M5028 883 c6 -2 18 -2 25 0 6 3 1 5 -13 5 -14 0 -19 -2 -12 -5z"/>
<path d="M5495 879 c-4 -5 -4 -13 -1 -16 3 -3 2 -11 -4 -17 -5 -7 -5 -17 0
-26 10 -15 10 -15 14 33 1 6 5 15 10 18 4 4 3 9 -2 13 -6 3 -14 1 -17 -5z"/>
<path d="M860 861 c0 -18 6 -21 40 -21 33 0 40 3 40 20 0 11 -7 20 -15 20 -8
0 -15 -7 -15 -15 0 -8 -4 -15 -10 -15 -5 0 -9 5 -7 12 1 6 -6 14 -15 16 -13 2
-18 -3 -18 -17z"/>
<path d="M1060 860 c0 -11 7 -20 15 -20 8 0 15 9 15 20 0 11 -7 20 -15 20 -8
0 -15 -9 -15 -20z"/>
<path d="M1107 873 c-14 -13 -6 -33 13 -33 13 0 20 7 20 20 0 19 -20 27 -33
13z"/>
<path d="M1895 870 c3 -5 22 -10 41 -10 19 0 34 5 34 10 0 6 -18 10 -41 10
-24 0 -38 -4 -34 -10z"/>
<path d="M1980 870 c0 -5 18 -10 40 -10 22 0 40 5 40 10 0 6 -18 10 -40 10
-22 0 -40 -4 -40 -10z"/>
<path d="M2190 870 c0 -5 11 -10 25 -10 14 0 25 5 25 10 0 6 -11 10 -25 10
-14 0 -25 -4 -25 -10z"/>
<path d="M2260 870 c0 -6 30 -10 70 -10 40 0 70 4 70 10 0 6 -30 10 -70 10
-40 0 -70 -4 -70 -10z"/>
<path d="M2430 876 c0 -2 14 -6 30 -8 17 -3 30 -1 30 4 0 4 -13 8 -30 8 -16 0
-30 -2 -30 -4z"/>
<path d="M2090 846 c34 -38 57 -49 63 -31 4 9 1 12 -7 9 -7 -3 -28 7 -47 22
l-34 28 25 -28z"/>
<path d="M4957 863 c-28 -4 -28 -5 -11 -24 22 -24 34 -24 34 1 0 16 7 20 34
20 28 0 35 -4 39 -22 4 -20 4 -19 6 5 1 25 -2 27 -36 26 -21 -1 -51 -4 -66 -6z"/>
<path d="M2728 853 c6 -2 18 -2 25 0 6 3 1 5 -13 5 -14 0 -19 -2 -12 -5z"/>
<path d="M3196 853 c-3 -3 12 -15 34 -25 22 -11 37 -24 34 -29 -3 -5 8 -9 24
-9 20 0 31 6 34 18 4 15 0 18 -23 17 -15 -1 -26 2 -24 6 3 4 -7 10 -23 14 -42
12 -50 13 -56 8z"/>
<path d="M3398 853 c7 -3 16 -2 19 1 4 3 -2 6 -13 5 -11 0 -14 -3 -6 -6z"/>
<path d="M3468 853 c7 -3 16 -2 19 1 4 3 -2 6 -13 5 -11 0 -14 -3 -6 -6z"/>
<path d="M3598 853 c7 -3 16 -2 19 1 4 3 -2 6 -13 5 -11 0 -14 -3 -6 -6z"/>
<path d="M2005 840 c-28 -7 -27 -8 13 -9 27 -1 41 3 37 9 -7 11 -7 11 -50 0z"/>
<path d="M1530 810 c0 -16 5 -30 10 -30 6 0 10 14 10 30 0 17 -4 30 -10 30 -5
0 -10 -13 -10 -30z"/>
<path d="M1898 833 c7 -3 16 -2 19 1 4 3 -2 6 -13 5 -11 0 -14 -3 -6 -6z"/>
<path d="M2208 833 c6 -2 18 -2 25 0 6 3 1 5 -13 5 -14 0 -19 -2 -12 -5z"/>
<path d="M2280 829 c-16 -4 1 -7 49 -8 41 -1 72 1 70 3 -9 8 -96 12 -119 5z"/>
<path d="M910 821 c0 -5 7 -14 15 -21 13 -10 15 -9 15 9 0 12 -6 21 -15 21 -8
0 -15 -4 -15 -9z"/>
<path d="M1060 820 c0 -5 7 -10 15 -10 8 0 15 5 15 10 0 6 -7 10 -15 10 -8 0
-15 -4 -15 -10z"/>
<path d="M1100 821 c0 -5 7 -12 16 -15 22 -9 24 -8 24 9 0 8 -9 15 -20 15 -11
0 -20 -4 -20 -9z"/>
<path d="M3491 808 c-1 -18 4 -28 14 -29 8 -1 23 -2 32 -3 9 0 18 5 21 13 3 8
0 11 -7 7 -6 -4 -11 -2 -11 3 0 6 -9 11 -19 11 -11 0 -22 6 -24 13 -3 6 -6 0
-6 -15z"/>
<path d="M5541 814 c0 -11 3 -14 6 -6 3 7 2 16 -1 19 -3 4 -6 -2 -5 -13z"/>
<path d="M3060 805 c-13 -15 -13 -15 33 -29 7 -2 24 3 38 11 13 8 16 12 7 9
-10 -3 -20 -1 -24 5 -3 6 -13 8 -21 5 -8 -3 -11 -1 -8 4 10 16 -11 12 -25 -5z"/>
<path d="M1363 803 c9 -2 23 -2 30 0 6 3 -1 5 -18 5 -16 0 -22 -2 -12 -5z"/>
<path d="M1410 795 c0 -8 5 -15 10 -15 6 0 10 7 10 15 0 8 -4 15 -10 15 -5 0
-10 -7 -10 -15z"/>
<path d="M1990 800 c0 -5 17 -10 38 -9 30 0 33 2 17 9 -28 12 -55 12 -55 0z"/>
<path d="M2175 800 c3 -5 19 -10 36 -10 16 0 29 5 29 10 0 6 -16 10 -36 10
-21 0 -33 -4 -29 -10z"/>
<path d="M260 786 c0 -15 24 -28 34 -19 10 10 7 25 -4 18 -5 -3 -10 -1 -10 4
0 6 -4 11 -10 11 -5 0 -10 -6 -10 -14z"/>
<path d="M3008 783 c6 -2 18 -2 25 0 6 3 1 5 -13 5 -14 0 -19 -2 -12 -5z"/>
<path d="M3421 781 c-8 -5 -10 -14 -7 -20 9 -13 33 -15 40 -2 9 14 -18 31 -33
22z"/>
<path d="M4521 764 c0 -11 3 -14 6 -6 3 7 2 16 -1 19 -3 4 -6 -2 -5 -13z"/>
<path d="M820 760 c0 -5 5 -10 10 -10 6 0 10 5 10 10 0 6 -4 10 -10 10 -5 0
-10 -4 -10 -10z"/>
<path d="M1988 763 c7 -3 16 -2 19 1 4 3 -2 6 -13 5 -11 0 -14 -3 -6 -6z"/>
<path d="M2060 760 c0 -5 7 -7 15 -4 8 4 15 8 15 10 0 2 -7 4 -15 4 -8 0 -15
-4 -15 -10z"/>
<path d="M2998 763 c6 -2 18 -2 25 0 6 3 1 5 -13 5 -14 0 -19 -2 -12 -5z"/>
<path d="M1410 350 l0 -220 130 0 c140 0 180 9 219 51 32 34 30 117 -4 153
-23 25 -24 29 -10 49 20 29 19 106 -1 136 -29 40 -73 51 -209 51 l-125 0 0
-220z m268 144 c14 -9 22 -26 22 -43 0 -49 -17 -59 -110 -63 -47 -3 -92 -6
-100 -9 -12 -3 -16 8 -18 50 -2 29 -1 60 2 67 8 21 174 19 204 -2z m18 -182
c40 -27 32 -92 -15 -111 -15 -7 -66 -11 -117 -9 l-89 3 -3 54 c-2 37 1 57 10
62 16 11 199 11 214 1z"/>
<path d="M1975 420 c4 -14 -16 -62 -65 -155 -69 -130 -70 -135 -47 -135 13 0
44 9 68 19 24 11 72 23 106 27 60 6 63 6 74 -20 10 -21 19 -26 47 -26 l34 0
-25 43 c-13 23 -50 93 -81 155 -54 105 -60 112 -88 112 -25 0 -28 -3 -23 -20z
m75 -142 c11 -21 20 -39 20 -41 0 -2 -19 -7 -42 -11 -24 -3 -54 -9 -66 -12
l-24 -7 27 54 c15 30 32 60 38 67 12 15 15 12 47 -50z"/>
<path d="M3645 426 c-17 -7 -43 -28 -58 -45 -111 -133 54 -317 218 -242 104
47 135 161 67 243 -14 17 -41 37 -59 44 -41 18 -129 17 -168 0z m162 -66 c59
-35 54 -122 -9 -160 -61 -37 -153 -14 -179 44 -17 36 -3 91 29 115 36 27 115
28 159 1z"/>
<path d="M2280 280 l0 -150 110 0 110 0 0 30 0 30 -80 0 -80 0 0 120 0 120
-30 0 -30 0 0 -150z"/>
<path d="M2530 406 c0 -23 4 -25 53 -28 l52 -3 3 -122 3 -123 29 0 29 0 0 113
c0 61 0 118 1 125 0 8 18 12 55 12 52 0 55 1 55 25 l0 25 -140 0 -140 0 0 -24z"/>
<path d="M2910 279 l0 -150 28 3 c18 2 27 9 26 21 0 9 -1 75 -2 147 l-2 130
-25 0 -25 0 0 -151z"/>
<path d="M3090 411 c5 -11 10 -79 10 -151 l0 -131 33 3 32 3 0 83 c-1 45 2 82
5 82 3 0 28 -29 54 -65 26 -36 49 -65 51 -65 2 0 25 29 51 65 26 36 51 65 56
65 4 0 8 -38 8 -85 l0 -85 30 0 30 0 0 134 c0 79 4 137 10 141 20 13 9 25 -23
25 -30 0 -39 -8 -96 -85 -34 -47 -64 -85 -65 -85 -1 0 -30 38 -66 85 -58 77
-68 85 -98 85 -29 0 -32 -2 -22 -19z"/>
<path d="M4020 280 l0 -150 30 0 c30 0 30 1 30 55 0 54 0 54 38 64 54 16 54
15 87 -40 35 -60 63 -82 101 -77 21 2 28 9 31 29 3 22 -1 27 -26 32 -17 4 -38
18 -47 31 -16 25 -15 26 15 52 26 21 31 33 31 69 0 35 -5 48 -26 64 -24 19
-40 21 -145 21 l-119 0 0 -150z m224 84 c12 -12 13 -20 6 -35 -9 -15 -22 -19
-68 -19 -31 0 -67 -3 -79 -6 -21 -6 -23 -3 -23 28 0 19 3 38 7 41 3 4 37 7 74
7 48 0 72 -5 83 -16z"/>
<path d="M4460 280 l0 -150 125 0 125 0 0 30 0 30 -100 0 -100 0 0 25 c0 31
31 45 96 45 43 0 44 1 44 31 l0 31 -57 -7 c-32 -4 -62 -8 -68 -8 -5 -1 -10 14
-10 33 l0 35 88 3 c85 3 87 3 87 27 l0 25 -115 0 -115 0 0 -150z"/>
</g>
</svg>
